<?xml version="1.0" encoding="UTF-8"?>
<svg version="1.1" xmlns="http://www.w3.org/2000/svg" width="835" height="299">
<path d="M0 0 C0.76349258 -0.0065712 1.52698517 -0.0131424 2.31361389 -0.01991272 C4.82536948 -0.03952571 7.33706558 -0.05128197 9.84887695 -0.0612793 C11.1439363 -0.06739259 11.1439363 -0.06739259 12.46515846 -0.07362938 C17.03601461 -0.09443998 21.6068412 -0.10876274 26.17773438 -0.11816406 C30.87369472 -0.12921243 35.56917918 -0.16360854 40.26497173 -0.20333576 C43.8983492 -0.22960708 47.53161505 -0.23786522 51.16507912 -0.24144554 C52.89486718 -0.24628507 54.62465115 -0.25782292 56.35434532 -0.27648354 C69.55610516 -0.41004862 81.08969372 0.60238664 91.1496582 10.17700195 C97.85937716 17.52719408 100.61117626 25.09153426 100.55371094 34.92871094 C100.56057419 35.76398315 100.56743744 36.59925537 100.57450867 37.45983887 C100.59268365 40.19776822 100.5889526 42.93511946 100.58325195 45.6730957 C100.58781816 47.59066451 100.59312504 49.50823169 100.59913635 51.42579651 C100.60804916 55.43611315 100.60566513 59.44623045 100.59570312 63.45654297 C100.58421489 68.57866955 100.60443216 73.70010656 100.63362026 78.8221426 C100.65202491 82.77973248 100.65168132 86.73715839 100.64598274 90.69478035 C100.64583005 92.58249949 100.65183066 94.47023012 100.66427422 96.35790825 C100.77064292 115.13748062 100.77064292 115.13748062 96.1496582 122.17700195 C95.71451401 122.90048325 95.27936981 123.62396454 94.83103943 124.36936951 C91.03472396 130.45849765 85.53824172 133.25703802 79.1496582 136.17700195 C78.44024078 136.52598038 77.73082336 136.8749588 76.99990845 137.23451233 C73.27716199 138.46550947 69.73975198 138.48004641 65.86206055 138.48339844 C64.62925858 138.49588371 64.62925858 138.49588371 63.37155151 138.50862122 C60.65951769 138.53267662 57.94772486 138.54148969 55.2355957 138.5480957 C53.34095185 138.55706838 51.44630871 138.56619034 49.55166626 138.57545471 C45.57894167 138.59193725 41.60630125 138.59964297 37.63354492 138.60253906 C32.56637568 138.60790919 27.50000879 138.64553564 22.43306541 138.69128323 C18.51743761 138.72117394 14.60199977 138.72826529 10.68626785 138.72926521 C8.81971199 138.73344695 6.95315447 138.74579816 5.08671188 138.76678276 C-7.14902898 138.89335273 -15.7122805 137.89081602 -26.1628418 130.98950195 C-34.37963412 122.39053324 -37.03520605 112.79854794 -37.47924805 101.2121582 C-37.51667618 100.32303238 -37.55410431 99.43390656 -37.59266663 98.51783752 C-38.04891431 85.98520376 -37.96861769 73.44575582 -37.828125 60.90820312 C-37.79727736 58.02944539 -37.7838621 55.15138094 -37.78515625 52.27246094 C-37.78669204 48.7269085 -37.75886406 45.1826835 -37.71072578 41.63746834 C-37.69085835 39.67698673 -37.69905601 37.71628282 -37.70823669 35.75572205 C-37.51313119 25.37668665 -34.54374337 17.06950331 -27.6003418 9.23950195 C-19.52101612 1.91257467 -10.61930242 0.04026233 0 0 Z " fill="#475CF7" transform="translate(74.850341796875,91.822998046875)"/>
<path d="M0 0 C4.62 0 9.24 0 14 0 C17.44595262 3.79054788 19.5292771 6.67219779 22 11 C23.33086436 12.87096271 24.68488884 14.72568512 26.0625 16.5625 C31.41859913 23.93106691 36.639339 31.37787004 41.640625 38.9921875 C42.59960761 40.40861584 43.61659713 41.78659354 44.671875 43.1328125 C46 45 46 45 46 47 C46.99 47 47.98 47 49 47 C48.99777939 46.42592911 48.99555878 45.85185822 48.99327087 45.26039124 C48.97121743 39.3074709 48.95609316 33.3545621 48.94506836 27.40161133 C48.94002683 25.17732268 48.93319377 22.95303737 48.92456055 20.72875977 C48.91248702 17.53921691 48.90677004 14.34971771 48.90234375 11.16015625 C48.89718246 10.15912369 48.89202118 9.15809113 48.88670349 8.12672424 C48.88662796 7.20584518 48.88655243 6.28496613 48.88647461 5.33618164 C48.884254 4.52121719 48.88203339 3.70625275 48.87974548 2.86659241 C49 1 49 1 50 0 C54.62 0 59.24 0 64 0 C64 24.42 64 48.84 64 74 C49 74 49 74 45.04296875 70.3359375 C44.03777283 68.71418149 43.08732051 67.05750838 42.1875 65.375 C41.12254639 63.61630705 40.05612833 61.85850009 38.98828125 60.1015625 C38.48377441 59.23047852 37.97926758 58.35939453 37.45947266 57.46191406 C35.45332255 54.07783617 33.2000694 50.91894082 30.875 47.75 C29.26625 45.5225 27.6575 43.295 26 41 C22.37 36.05 18.74 31.1 15 26 C14.67 41.84 14.34 57.68 14 74 C9.38 74 4.76 74 0 74 C0 49.58 0 25.16 0 0 Z " fill="#FCFDFD" transform="translate(236,123)"/>
<path d="M0 0 C-0.56789967 5.84549265 -1.76154614 11.03278097 -3.6171875 16.59375 C-3.87501007 17.38471069 -4.13283264 18.17567139 -4.39846802 18.99060059 C-5.21721604 21.4960097 -6.04612992 23.99792395 -6.875 26.5 C-7.42380423 28.17818045 -7.97198668 29.85656438 -8.51953125 31.53515625 C-9.05152474 33.15903727 -9.58405898 34.78274126 -10.1171875 36.40625 C-10.36105194 37.14919312 -10.60491638 37.89213623 -10.85617065 38.65759277 C-12.45650526 43.48534485 -14.18858964 48.24730956 -16 53 C-20.62 53 -25.24 53 -30 53 C-32.86562016 45.60740319 -35.22030794 38.08711759 -37.5703125 30.51757812 C-37.869375 29.56431641 -38.1684375 28.61105469 -38.4765625 27.62890625 C-38.74549316 26.76338135 -39.01442383 25.89785645 -39.29150391 25.00610352 C-39.82775897 23.02848379 -39.82775897 23.02848379 -41 22 C-43.97 32.23 -46.94 42.46 -50 53 C-54.95 53 -59.9 53 -65 53 C-66.64058711 48.27347316 -68.27606795 43.54521867 -69.90722656 38.81542969 C-70.46057902 37.21308 -71.01522528 35.61117642 -71.57128906 34.00976562 C-81 6.84690884 -81 6.84690884 -81 1 C-78.87561661 0.91921359 -76.7503677 0.86090859 -74.625 0.8125 C-73.44164062 0.77769531 -72.25828125 0.74289063 -71.0390625 0.70703125 C-69.53472656 0.85205078 -69.53472656 0.85205078 -68 1 C-65.98787189 4.01819217 -65.26995995 6.18351532 -64.34375 9.65625 C-64.04339844 10.76097656 -63.74304688 11.86570313 -63.43359375 13.00390625 C-62.81119792 15.33463542 -62.18880208 17.66536458 -61.56640625 19.99609375 C-61.26605469 21.10082031 -60.96570313 22.20554688 -60.65625 23.34375 C-60.38619141 24.35630859 -60.11613281 25.36886719 -59.83789062 26.41210938 C-59.06637501 29.19448859 -59.06637501 29.19448859 -57 32 C-55.73463137 28.22867534 -54.47126286 24.45668715 -53.2097168 20.68408203 C-52.78057435 19.40167295 -52.35089273 18.11944415 -51.9206543 16.83740234 C-51.30114143 14.99103915 -50.68374912 13.14396488 -50.06640625 11.296875 C-49.69459229 10.18666992 -49.32277832 9.07646484 -48.93969727 7.93261719 C-48.20746078 5.64744581 -47.58199346 3.32797382 -47 1 C-42.71 1 -38.42 1 -34 1 C-33.73783691 1.86802246 -33.47567383 2.73604492 -33.20556641 3.63037109 C-32.23031105 6.84858437 -31.24942173 10.06496587 -30.26464844 13.28027344 C-29.83952114 14.6724842 -29.41665443 16.06538733 -28.99609375 17.45898438 C-28.39134587 19.46149857 -27.77852368 21.46138561 -27.1640625 23.4609375 C-26.79748535 24.66540527 -26.4309082 25.86987305 -26.05322266 27.11083984 C-25.2009557 30.08048433 -25.2009557 30.08048433 -23 32 C-21.68344568 27.77208465 -20.37246664 23.54246066 -19.0625 19.3125 C-18.50272461 17.51522461 -18.50272461 17.51522461 -17.93164062 15.68164062 C-17.57392578 14.52470703 -17.21621094 13.36777344 -16.84765625 12.17578125 C-16.51773682 11.11270752 -16.18781738 10.04963379 -15.84790039 8.9543457 C-15.08943943 6.31163447 -14.49172055 3.70337033 -14 1 C-11.85420251 0.83287252 -9.70836101 0.66631 -7.5625 0.5 C-5.77005859 0.36078125 -5.77005859 0.36078125 -3.94140625 0.21875 C-1 0 -1 0 0 0 Z " fill="#FCFCFD" transform="translate(704,144)"/>
<path d="M0 0 C8.559375 -0.020625 17.11875 -0.04125 25.9375 -0.0625 C28.64316162 -0.071604 31.34882324 -0.08070801 34.13647461 -0.09008789 C36.26676382 -0.09300685 38.39705358 -0.09555545 40.52734375 -0.09765625 C41.64500122 -0.10277222 42.76265869 -0.10788818 43.91418457 -0.11315918 C45.49761658 -0.11334045 45.49761658 -0.11334045 47.11303711 -0.11352539 C48.03459091 -0.115746 48.95614471 -0.11796661 49.90562439 -0.12025452 C52 0 52 0 53 1 C53.09851171 2.83115883 53.12972629 4.66619933 53.125 6.5 C53.12886719 8.00046875 53.12886719 8.00046875 53.1328125 9.53125 C53 12 53 12 52 13 C49.26105915 13.08858646 46.5474673 13.11523479 43.80859375 13.09765625 C42.98875504 13.0962413 42.16891632 13.09482635 41.32423401 13.09336853 C38.69528618 13.08775289 36.06642227 13.07519779 33.4375 13.0625 C31.65950643 13.05748701 29.88151154 13.05292376 28.10351562 13.04882812 C23.73561842 13.03862752 19.3679036 13.01905532 15 13 C15 19.6 15 26.2 15 33 C26.22 32.67 37.44 32.34 49 32 C49 36.29 49 40.58 49 45 C37.78 45 26.56 45 15 45 C15.03959518 54.1698291 15.03959518 54.1698291 15.09008789 63.33959961 C15.09258545 64.47405518 15.09508301 65.60851074 15.09765625 66.77734375 C15.10289307 67.94515381 15.10812988 69.11296387 15.11352539 70.31616211 C15 73 15 73 14 74 C9.38 74 4.76 74 0 74 C0 49.58 0 25.16 0 0 Z " fill="#FCFCFD" transform="translate(478,123)"/>
<path d="M0 0 C4.65986691 3.30616256 8.81993684 6.95239201 10.22607422 12.75219727 C10.55624557 15.01796714 10.7870003 17.26876015 10.97265625 19.55078125 C11.05 20.33453125 11.12734375 21.11828125 11.20703125 21.92578125 C11.3938863 23.84104554 11.56037318 25.75827862 11.72265625 27.67578125 C6.32718064 28.45823059 1.17712621 28.77136982 -4.27734375 28.5546875 C-5.3590686 28.51927101 -5.3590686 28.51927101 -6.46264648 28.48313904 C-8.73445999 28.40741912 -11.00585026 28.32300965 -13.27734375 28.23828125 C-14.83070942 28.18496837 -16.38409488 28.13222885 -17.9375 28.08007812 C-21.71770877 27.95193065 -25.49756416 27.81599683 -29.27734375 27.67578125 C-28.67526008 28.97147586 -28.06251037 30.26221768 -27.4453125 31.55078125 C-26.9352063 32.62972656 -26.9352063 32.62972656 -26.41479492 33.73046875 C-24.58492808 36.85997702 -22.69770362 37.64321978 -19.27734375 38.67578125 C-13.9990558 39.25383433 -9.13996441 38.98552606 -4.27734375 36.67578125 C-3.94734375 35.68578125 -3.61734375 34.69578125 -3.27734375 33.67578125 C1.01265625 33.67578125 5.30265625 33.67578125 9.72265625 33.67578125 C8.6414574 40.16297437 7.5756282 42.56022187 2.72265625 46.67578125 C-5.70731064 52.13046571 -16.71881842 52.04036389 -26.28125 50.05078125 C-33.33519328 47.63844034 -37.56693891 43.14794924 -41.37109375 36.87109375 C-44.55878807 29.99393842 -44.37353229 21.30183478 -42.65625 14.0546875 C-40.12472835 7.56274086 -35.33147727 1.79832579 -29.12109375 -1.453125 C-19.14098451 -5.3073836 -9.43622424 -5.4869297 0 0 Z M-25.27734375 10.67578125 C-28.00960109 13.83392364 -28.00960109 13.83392364 -29.27734375 17.67578125 C-21.02734375 17.67578125 -12.77734375 17.67578125 -4.27734375 17.67578125 C-3.94734375 17.01578125 -3.61734375 16.35578125 -3.27734375 15.67578125 C-4.78632512 11.99763916 -6.07014871 10.78915212 -9.58984375 8.86328125 C-15.78480969 6.86829222 -19.75717934 7.07567402 -25.27734375 10.67578125 Z " fill="#FCFDFD" transform="translate(456.27734375,147.32421875)"/>
<path d="M0 0 C5.47340592 5.0360333 7.91578761 10.64815243 8.453125 18.046875 C8.60939205 27.89169928 7.2474409 35.19233016 0.33984375 42.5234375 C-6.35566388 48.05505315 -15.09506708 49.55956499 -23.5625 49.125 C-30.7730318 48.24700526 -37.17555421 45.32132517 -42.1875 40 C-47.80628385 32.59848586 -48.64280286 24.31442905 -47.75 15.25 C-46.35917597 8.53927406 -42.44877249 2.24804581 -37.12109375 -2.0703125 C-25.8761531 -9.11470688 -10.34847909 -8.22177894 0 0 Z M-30.75 10.25 C-34.29343544 15.21080961 -34.59892027 20.3542021 -33.75 26.25 C-32.21127747 30.47951425 -29.86138035 34.24986902 -25.75 36.25 C-21.37529124 37.32067442 -17.85128313 37.56767783 -13.5 36.3125 C-9.04996698 32.97497523 -6.28528064 29.27084467 -5.30078125 23.71484375 C-5.00729236 17.0050805 -6.95473214 13.49251071 -11.3125 8.4375 C-14.57285347 5.74416452 -18.44688144 5.9138568 -22.46484375 5.97265625 C-26.08744393 6.41232225 -28.07756608 7.83208359 -30.75 10.25 Z " fill="#FCFDFD" transform="translate(610.75,149.75)"/>
<path d="M0 0 C5.4803935 5.6757115 7.79816274 11.63127528 8.015625 19.48828125 C7.5760289 29.23829741 5.11347278 36.0981951 -2.1171875 42.765625 C-9.60365649 48.41409861 -19.09653807 48.07576084 -28.07421875 47.2421875 C-35.79034794 45.61288532 -40.77077741 41.79924157 -45.07421875 35.2421875 C-48.98749097 27.92104722 -50.0139945 19.53812974 -47.93359375 11.51171875 C-44.99505365 3.75130148 -40.04745862 -1.80731293 -32.63671875 -5.4453125 C-21.18355729 -9.6648983 -9.39628554 -7.96295385 0 0 Z M-30.07421875 8.2421875 C-33.52828582 12.46382503 -34.98152069 15.77300175 -35.07421875 21.2421875 C-33.99103059 26.48055649 -32.51665449 30.97569064 -28.07421875 34.2421875 C-24.25953969 36.53099494 -20.67704043 36.648316 -16.36328125 36.03515625 C-11.91230963 34.49326676 -9.40843713 31.20621516 -7.07421875 27.2421875 C-5.09775138 22.04631968 -6.14353292 17.31383626 -8.046875 12.2265625 C-9.87808967 8.68946345 -12.60682769 6.97588303 -16.07421875 5.2421875 C-21.40541329 4.6975468 -25.84251633 4.615014 -30.07421875 8.2421875 Z " fill="#FCFDFD" transform="translate(359.07421875,150.7578125)"/>
<path d="M0 0 C5.61 0 11.22 0 17 0 C17.02255161 10.02228165 17.04091543 20.04454657 17.05181217 30.0668478 C17.05704085 34.72011186 17.06413823 39.37335774 17.07543945 44.02661133 C17.08626886 48.51344546 17.09227695 53.00026204 17.09487724 57.48710823 C17.0967314 59.20280293 17.10035182 60.91849662 17.10573006 62.63418388 C17.11294121 65.02884913 17.11399091 67.42344096 17.11352539 69.81811523 C17.11712067 70.53452682 17.12071594 71.25093842 17.12442017 71.98905945 C17.11405216 76.88594784 17.11405216 76.88594784 16 78 C10.72 78 5.44 78 0 78 C0 52.26 0 26.52 0 0 Z " fill="#D2D9FE" transform="translate(126,120)"/>
<path d="M0 0 C4.62 0 9.24 0 14 0 C14 4.95 14 9.9 14 15 C17.96 15 21.92 15 26 15 C27.62651522 18.25303044 27.11453156 21.39225602 27 25 C26 26 26 26 23.27734375 26.09765625 C22.17519531 26.08605469 21.07304687 26.07445312 19.9375 26.0625 C18.83277344 26.05347656 17.72804688 26.04445312 16.58984375 26.03515625 C15.73519531 26.02355469 14.88054687 26.01195312 14 26 C14.13835803 30.45859862 14.28694579 34.91679786 14.4375 39.375 C14.47681641 40.64601562 14.51613281 41.91703125 14.55664062 43.2265625 C14.59853516 44.43828125 14.64042969 45.65 14.68359375 46.8984375 C14.72025146 48.01911621 14.75690918 49.13979492 14.79467773 50.29443359 C14.82596013 52.96712771 14.82596013 52.96712771 16 55 C18.32353985 55.42985694 18.32353985 55.42985694 21 55.5625 C25.90381679 55.90381679 25.90381679 55.90381679 27 57 C26.91036938 58.69141656 26.75422324 60.37959602 26.5625 62.0625 C26.46066406 62.98160156 26.35882813 63.90070313 26.25390625 64.84765625 C26.17011719 65.55792969 26.08632813 66.26820313 26 67 C19.97054509 69.0098183 13.29019592 68.98933202 7.5 66.25 C4.02024112 64.22903574 1.73463343 62.21638426 0.43969727 58.30957031 C-0.15323772 55.19509784 -0.1110885 52.21688676 -0.09765625 49.046875 C-0.0962413 48.38665344 -0.09482635 47.72643188 -0.09336853 47.04620361 C-0.08779245 44.94742206 -0.07524447 42.84874905 -0.0625 40.75 C-0.0574819 39.32291821 -0.05291954 37.89583475 -0.04882812 36.46875 C-0.03783088 32.97913168 -0.0205828 29.48957644 0 26 C-3.3 26 -6.6 26 -10 26 C-10 22.37 -10 18.74 -10 15 C-6.7 15 -3.4 15 0 15 C0 10.05 0 5.1 0 0 Z " fill="#FCFDFD" transform="translate(380,130)"/>
<path d="M0 0 C0.70253906 0.00386719 1.40507813 0.00773438 2.12890625 0.01171875 C2.83144531 0.00785156 3.53398438 0.00398437 4.2578125 0 C9.50229247 0.01010497 9.50229247 0.01010497 10.62890625 1.13671875 C10.72286682 3.06978373 10.74634142 5.00630713 10.74243164 6.94165039 C10.74235611 8.18286148 10.74228058 9.42407257 10.74220276 10.70289612 C10.73709536 12.06755615 10.73187935 13.43221577 10.7265625 14.796875 C10.72469825 16.18550058 10.72327438 17.57412682 10.72227478 18.9627533 C10.71845012 22.6239299 10.70862028 26.28506705 10.6975708 29.94622803 C10.68735557 33.67964138 10.68277692 37.41306109 10.67773438 41.14648438 C10.66699796 48.47658052 10.64992216 55.80664411 10.62890625 63.13671875 C7.98300611 63.16356554 5.33737529 63.18348232 2.69140625 63.19921875 C1.93666016 63.20759766 1.18191406 63.21597656 0.40429688 63.22460938 C-1.52103688 63.23324316 -3.44644956 63.18896208 -5.37109375 63.13671875 C-7.13833186 61.36948064 -6.49872208 58.83353035 -6.50048828 56.43945312 C-6.50364044 55.22149048 -6.5067926 54.00352783 -6.51004028 52.74865723 C-6.5082505 51.4092607 -6.50619955 50.06986451 -6.50390625 48.73046875 C-6.50457935 47.36665835 -6.50554942 46.00284807 -6.50680542 44.63903809 C-6.50828213 41.77741354 -6.50612872 38.91582015 -6.50146484 36.05419922 C-6.49576756 32.37853261 -6.49904671 28.70293901 -6.50503731 25.02727509 C-6.50864366 22.21009771 -6.507504 19.39293777 -6.50490952 16.57575989 C-6.50424045 15.22011812 -6.50506796 13.86447479 -6.50738907 12.50883484 C-6.50991676 10.61721831 -6.50538389 8.72559626 -6.50048828 6.83398438 C-6.49969269 5.75556274 -6.49889709 4.67714111 -6.49807739 3.56604004 C-6.26226489 -0.94528384 -3.97463675 0.00765826 0 0 Z " fill="#F7F8FD" transform="translate(77.37109375,134.86328125)"/>
<path d="M0 0 C0 25.08 0 50.16 0 76 C-4.62 76 -9.24 76 -14 76 C-14 51.25 -14 26.5 -14 1 C-2 0 -2 0 0 0 Z " fill="#FDFDFE" transform="translate(554,121)"/>
<path d="M0 0 C0.66 0 1.32 0 2 0 C2 23.1 2 46.2 2 70 C10.415 69.505 10.415 69.505 19 69 C19.33 46.23 19.66 23.46 20 0 C20.33 0 20.66 0 21 0 C21.15358047 10.28297024 21.30176223 20.56600253 21.4429636 30.84915066 C21.5086936 35.62351695 21.5763155 40.39784113 21.64819336 45.17211914 C21.71743145 49.77560691 21.78178845 54.37913894 21.84269524 58.98274422 C21.86685616 60.7431189 21.89280547 62.50346994 21.92053413 64.26379204 C21.95893568 66.72066419 21.99109895 69.17754193 22.02172852 71.63452148 C22.03467453 72.36963455 22.04762054 73.10474762 22.06095886 73.86213684 C22.07905867 75.57478279 22.04516689 77.28785406 22 79 C20.08483732 80.91516268 16.81471212 80.48264229 14.25 80.6875 C12.40148437 80.84798828 12.40148437 80.84798828 10.515625 81.01171875 C7.07290461 81.00024302 5.04819813 80.51828189 2 79 C2 77.35 2 75.7 2 74 C1.01 74.99 1.01 74.99 0 76 C-1.98636298 76.70626239 -3.98848259 77.36893571 -6 78 C-7.175625 78.556875 -7.175625 78.556875 -8.375 79.125 C-12.01590905 80.33863635 -15.15879068 80.06097158 -19 80 C-21.35529281 80.41731018 -21.35529281 80.41731018 -23 81 C-23.495 78.03 -23.495 78.03 -24 75 C-24.99 74.67 -25.98 74.34 -27 74 C-28.17755913 71.05610218 -28.03348696 70.10046087 -27 67 C-27.33 66.01 -27.66 65.02 -28 64 C-28.01587316 62.14676377 -27.96640516 60.29264378 -27.87890625 58.44140625 C-27.83056641 57.33216797 -27.78222656 56.22292969 -27.73242188 55.08007812 C-27.67634766 53.91927734 -27.62027344 52.75847656 -27.5625 51.5625 C-27.16703811 43.03321712 -26.92139124 34.53924063 -27 26 C-26.34 26 -25.68 26 -25 26 C-25 40.52 -25 55.04 -25 70 C-19.39 70 -13.78 70 -8 70 C-8 55.48 -8 40.96 -8 26 C-7.34 26.33 -6.68 26.66 -6 27 C-6 39.87 -6 52.74 -6 66 C-4.02 65.01 -4.02 65.01 -2 64 C-2 64.66 -2 65.32 -2 66 C-1.34 66 -0.68 66 0 66 C-0.01474869 65.27638779 -0.02949738 64.55277557 -0.04469299 63.80723572 C-0.18311136 56.96651072 -0.31605977 50.12569858 -0.4429636 43.28475094 C-0.50838629 39.76829913 -0.57587572 36.25191301 -0.64819336 32.7355957 C-0.73136292 28.68711502 -0.80535402 24.63851066 -0.87890625 20.58984375 C-0.90594131 19.33541977 -0.93297638 18.08099579 -0.96083069 16.78855896 C-1.05817451 11.06942057 -1.07748036 5.62684188 0 0 Z " fill="#3E53DF" transform="translate(123,128)"/>
<path d="M0 0 C5.61 0 11.22 0 17 0 C17 14.52 17 29.04 17 44 C11.39 44 5.78 44 0 44 C0 29.48 0 14.96 0 0 Z " fill="#F6F7FD" transform="translate(98,154)"/>
<path d="M0 0 C0.33 0 0.66 0 1 0 C1.02505615 1.1645874 1.0501123 2.3291748 1.07592773 3.52905273 C1.17069979 7.88461731 1.27074484 12.24004807 1.37231445 16.59545898 C1.41540117 18.47400768 1.45709248 20.35258896 1.49731445 22.23120117 C1.55565933 24.94459822 1.61916223 27.6578352 1.68359375 30.37109375 C1.70030624 31.19959335 1.71701874 32.02809296 1.73423767 32.88169861 C1.85295067 37.64415481 2.21375932 42.3105136 2.78184509 47.03999329 C3.03032207 49.27242778 3.11475298 51.46521612 3.09765625 53.7109375 C3.09443359 54.48050781 3.09121094 55.25007813 3.08789062 56.04296875 C3.07951172 56.81253906 3.07113281 57.58210938 3.0625 58.375 C3.05798828 59.16777344 3.05347656 59.96054688 3.04882812 60.77734375 C3.03654409 62.85158998 3.01863053 64.92580106 3 67 C3 67.99 3 68.98 3 70 C-0.86637845 71.43865245 -3.89377579 72.10805853 -8 72 C-9.34332728 72.29044914 -10.68225804 72.60955794 -12 73 C-12.33 71.68 -12.66 70.36 -13 69 C-13.99 69 -14.98 69 -16 69 C-16 66.69 -16 64.38 -16 62 C-10.72 62 -5.44 62 0 62 C0 41.54 0 21.08 0 0 Z " fill="#3E50D4" transform="translate(88,136)"/>
<path d="M0 0 C0.66 0 1.32 0 2 0 C2 14.52 2 29.04 2 44 C7.61 44 13.22 44 19 44 C19 29.48 19 14.96 19 0 C19.33 0 19.66 0 20 0 C20.05076475 6.31710371 20.0857608 12.63415469 20.10986328 18.95141602 C20.11991265 21.09987351 20.13355433 23.24831737 20.15087891 25.39672852 C20.17517376 28.48717622 20.18649386 31.57744287 20.1953125 34.66796875 C20.20563507 35.62648239 20.21595764 36.58499603 20.22659302 37.57255554 C20.22736963 42.20231458 20.10978091 45.77261645 18 50 C18 50.66 18 51.32 18 52 C13.38 52 8.76 52 4 52 C3.505 50.515 3.505 50.515 3 49 C2.01 48.67 1.02 48.34 0 48 C-1.17755913 45.05610218 -1.03348696 44.10046087 0 41 C-0.495 39.515 -0.495 39.515 -1 38 C-1.01587316 36.14676377 -0.96640516 34.29264378 -0.87890625 32.44140625 C-0.83056641 31.33216797 -0.78222656 30.22292969 -0.73242188 29.08007812 C-0.64831055 27.33887695 -0.64831055 27.33887695 -0.5625 25.5625 C-0.16703811 17.03321712 0.07860876 8.53924063 0 0 Z " fill="#3C4ED1" transform="translate(96,154)"/>
<path d="M0 0 C0.76349258 -0.0065712 1.52698517 -0.0131424 2.31361389 -0.01991272 C4.82536948 -0.03952571 7.33706558 -0.05128197 9.84887695 -0.0612793 C11.1439363 -0.06739259 11.1439363 -0.06739259 12.46515846 -0.07362938 C17.03601461 -0.09443998 21.6068412 -0.10876274 26.17773438 -0.11816406 C30.87369472 -0.12921243 35.56917918 -0.16360854 40.26497173 -0.20333576 C43.8983492 -0.22960708 47.53161505 -0.23786522 51.16507912 -0.24144554 C52.89486718 -0.24628507 54.62465115 -0.25782292 56.35434532 -0.27648354 C66.02375506 -0.37431107 74.25185933 -0.16929909 83.1496582 4.17700195 C83.1496582 4.50700195 83.1496582 4.83700195 83.1496582 5.17700195 C76.2746582 4.30200195 76.2746582 4.30200195 75.1496582 3.17700195 C72.38026854 3.08182392 69.63588661 3.0514593 66.86621094 3.06347656 C65.99799713 3.06333054 65.12978333 3.06318451 64.23526001 3.06303406 C61.35123234 3.0637335 58.46726841 3.07152733 55.58325195 3.0793457 C53.58927953 3.08120977 51.59530666 3.08263373 49.60133362 3.08363342 C44.34220118 3.08745948 39.08309618 3.0972905 33.82397461 3.1083374 C28.46183646 3.11854965 23.09969389 3.12313064 17.73754883 3.12817383 C7.20823987 3.13891269 -3.32104868 3.15599016 -13.8503418 3.17700195 C-13.8503418 3.83700195 -13.8503418 4.49700195 -13.8503418 5.17700195 C-14.8403418 5.17700195 -15.8303418 5.17700195 -16.8503418 5.17700195 C-16.8503418 6.49700195 -16.8503418 7.81700195 -16.8503418 9.17700195 C-17.5928418 8.99137695 -18.3353418 8.80575195 -19.1003418 8.61450195 C-21.80025142 8.18497088 -23.29665257 8.32577221 -25.8503418 9.17700195 C-18.64763838 1.10124357 -10.32496965 0.03914639 0 0 Z " fill="#415EE2" transform="translate(74.850341796875,91.822998046875)"/>
<path d="M0 0 C0 12.21 0 24.42 0 37 C-2 37 -4 37 -6 37 C-6 25.45 -6 13.9 -6 2 C-1 0 -1 0 0 0 Z " fill="#3F54ED" transform="translate(123,157)"/>
<path d="M0 0 C0.33 0 0.66 0 1 0 C1.02320072 9.02323797 1.04095447 18.04646562 1.05181217 27.06972694 C1.0570241 31.25987428 1.064091 35.45000116 1.07543945 39.64013672 C1.08632847 43.68609187 1.09228957 47.73202738 1.09487724 51.77799606 C1.09672066 53.31930221 1.10032037 54.86060731 1.10573006 56.40190506 C1.11302035 58.56564889 1.11398758 60.72931222 1.11352539 62.89306641 C1.115746 64.12328522 1.11796661 65.35350403 1.12025452 66.6210022 C1.00497479 69.86021485 0.74463389 72.84467942 0 76 C-2.64458379 77.32229189 -4.67761301 77.09677194 -7.625 77.0625 C-8.62789062 77.05347656 -9.63078125 77.04445313 -10.6640625 77.03515625 C-11.43492187 77.02355469 -12.20578125 77.01195312 -13 77 C-13.99 74.69 -14.98 72.38 -16 70 C-11.05 69.67 -6.1 69.34 -1 69 C-0.67 46.23 -0.34 23.46 0 0 Z " fill="#3B51CE" transform="translate(143,128)"/>
<path d="M0 0 C0.66 0.33 1.32 0.66 2 1 C2 23.44 2 45.88 2 69 C-0.87974108 66.12025892 -1.56972597 64.62336088 -3 61 C-3.66 60.67 -4.32 60.34 -5 60 C-4.01 59.34 -3.02 58.68 -2 58 C-1.53081215 55.79396718 -1.53081215 55.79396718 -1.58349609 53.20239258 C-1.56692963 52.20407913 -1.55036316 51.20576569 -1.53329468 50.17720032 C-1.53004181 49.09391953 -1.52678894 48.01063873 -1.5234375 46.89453125 C-1.50785797 45.78196457 -1.49227844 44.66939789 -1.47622681 43.52311707 C-1.42856353 39.95291918 -1.40092302 36.38291641 -1.375 32.8125 C-1.33842917 29.26007737 -1.29765656 25.70776313 -1.25234985 22.15544128 C-1.22528835 19.9428691 -1.20386645 17.73021881 -1.18881226 15.51753235 C-1.13544309 10.24375257 -0.91521567 5.19708475 0 0 Z " fill="#4D5BD0" transform="translate(70,135)"/>
<path d="M0 0 C5.28 0 10.56 0 16 0 C17 5 17 5 15.87109375 6.796875 C13.44956915 8.35393048 11.92417093 8.33606529 9.0625 8.25 C8.20785156 8.23453125 7.35320312 8.2190625 6.47265625 8.203125 C4.20190102 8.01658587 2.18475086 7.62855941 0 7 C0 4.69 0 2.38 0 0 Z " fill="#3344C9" transform="translate(72,198)"/>
<path d="M0 0 C0 3 0 3 -1.75 5.0625 C-9.21490538 14.80834869 -8.60392573 25.42674987 -8.609375 37.1328125 C-8.624376 38.97941525 -8.64110715 40.82600467 -8.65948486 42.6725769 C-8.70295519 47.50248879 -8.72311217 52.33221973 -8.73822021 57.16229248 C-8.75786494 62.10309457 -8.79982644 67.04370335 -8.83984375 71.984375 C-8.91492549 81.65619007 -8.96535001 91.32796141 -9 101 C-9.33 101 -9.66 101 -10 101 C-11.05211969 84.57646979 -11.16235377 68.18032721 -10.9777832 51.73120117 C-10.94693556 48.85244344 -10.9335203 45.97437899 -10.93481445 43.09545898 C-10.93635024 39.54990655 -10.90852226 36.00568154 -10.86038399 32.46046638 C-10.84051655 30.49998478 -10.84871421 28.53928087 -10.8578949 26.57872009 C-10.67832483 17.02612427 -8.50318215 8.77830391 -1.80015564 1.66575623 C-1.20610428 1.11605667 -0.61205292 0.56635712 0 0 Z " fill="#4355C7" transform="translate(48,101)"/>
<path d="M0 0 C0.33 0 0.66 0 1 0 C1 6.27 1 12.54 1 19 C1.99 19.33 2.98 19.66 4 20 C4.66 21.65 5.32 23.3 6 25 C10.29 25 14.58 25 19 25 C19 23.02 19 21.04 19 19 C19.33 19 19.66 19 20 19 C20.19412181 20.47831221 20.38012131 21.95769316 20.5625 23.4375 C20.66691406 24.26121094 20.77132812 25.08492187 20.87890625 25.93359375 C20.91886719 26.61550781 20.95882812 27.29742187 21 28 C19.08483732 29.91516268 15.81471212 29.48264229 13.25 29.6875 C12.01765625 29.79449219 10.7853125 29.90148437 9.515625 30.01171875 C6.07290461 30.00024302 4.04819813 29.51828189 1 28 C0.07840421 21.78829926 -0.12177385 15.77390894 -0.0625 9.5 C-0.05798828 8.5821875 -0.05347656 7.664375 -0.04882812 6.71875 C-0.03716326 4.47909609 -0.02079614 2.23958455 0 0 Z " fill="#364AD8" transform="translate(124,179)"/>
<path d="M0 0 C4.62 0 9.24 0 14 0 C14 17.49 14 34.98 14 53 C13.67 53 13.34 53 13 53 C12.67 36.5 12.34 20 12 3 C8.7 3 5.4 3 2 3 C1.11924541 6.52301835 0.71170311 9.64618768 0.4375 13.25 C0.35371094 14.32765625 0.26992188 15.4053125 0.18359375 16.515625 C0.12300781 17.33546875 0.06242187 18.1553125 0 19 C-0.33 19 -0.66 19 -1 19 C-1.02683987 16.02077407 -1.04676037 13.04178705 -1.0625 10.0625 C-1.07087891 9.21236328 -1.07925781 8.36222656 -1.08789062 7.48632812 C-1.09111328 6.67744141 -1.09433594 5.86855469 -1.09765625 5.03515625 C-1.10289307 4.2862915 -1.10812988 3.53742676 -1.11352539 2.76586914 C-1 1 -1 1 0 0 Z " fill="#F2F6F9" transform="translate(286,123)"/>
<path d="M0 0 C10.11026332 -0.09303292 20.22042335 -0.16393302 30.33102894 -0.20724869 C35.02674892 -0.22804712 39.72217419 -0.25622172 44.41772461 -0.30175781 C48.95650278 -0.34549381 53.49499901 -0.36919522 58.03397179 -0.37950897 C59.7581901 -0.38685087 61.4823945 -0.40118683 63.20649147 -0.42292023 C72.87967258 -0.53991237 81.09836724 -0.35374342 90 4 C90 4.33 90 4.66 90 5 C83.52797848 4.2385857 83.52797848 4.2385857 80.7447052 2.98086548 C77.23729778 1.72743584 73.94963482 1.69231923 70.2722168 1.68115234 C69.51070816 1.67110672 68.74919952 1.6610611 67.96461487 1.65071106 C65.45949017 1.61993763 62.95447206 1.60286034 60.44921875 1.5859375 C58.70757636 1.56722114 56.965943 1.54764737 55.22431946 1.5272522 C50.64921391 1.47597442 46.07407899 1.43632542 41.49884033 1.39910889 C36.82662716 1.35904193 32.15453578 1.30796186 27.48242188 1.2578125 C18.32170019 1.16110478 9.16090966 1.07668351 0 1 C0 0.67 0 0.34 0 0 Z " fill="#475EC4" transform="translate(68,92)"/>
<path d="M0 0 C0.33 0 0.66 0 1 0 C1.05076475 6.31710371 1.0857608 12.63415469 1.10986328 18.95141602 C1.11991265 21.09987351 1.13355433 23.24831737 1.15087891 25.39672852 C1.17517376 28.48717622 1.18649386 31.57744287 1.1953125 34.66796875 C1.20563507 35.62648239 1.21595764 36.58499603 1.22659302 37.57255554 C1.22736963 42.20231458 1.10978091 45.77261645 -1 50 C-1 50.66 -1 51.32 -1 52 C-4.3 52 -7.6 52 -11 52 C-9.02 51.505 -9.02 51.505 -7 51 C-7 49.02 -7 47.04 -7 45 C-4.03 44.505 -4.03 44.505 -1 44 C-0.67 29.48 -0.34 14.96 0 0 Z " fill="#4554C3" transform="translate(115,154)"/>
<path d="M0 0 C1.39456452 0.00667256 2.78911118 0.01863093 4.18359375 0.03515625 C4.89451172 0.03966797 5.60542969 0.04417969 6.33789062 0.04882812 C8.09899388 0.06064761 9.86005411 0.07858362 11.62109375 0.09765625 C8.45100378 2.21104956 7.17958334 2.40778889 3.49609375 2.66015625 C0.251884 2.64250504 0.251884 2.64250504 -2.37890625 4.09765625 C-2.50220713 5.90733365 -2.55680808 7.72173462 -2.58422852 9.53540039 C-2.60417374 10.69652847 -2.62411896 11.85765656 -2.64466858 13.05397034 C-2.66138107 14.31748825 -2.67809357 15.58100616 -2.6953125 16.8828125 C-2.7160936 18.16876816 -2.73687469 19.45472382 -2.75828552 20.77964783 C-2.81356801 24.20401529 -2.86294986 27.62844375 -2.91113281 31.05291748 C-2.9613029 34.54509939 -3.01701235 38.03719235 -3.07226562 41.52929688 C-3.17992265 48.38533958 -3.28135074 55.24146258 -3.37890625 62.09765625 C-3.70890625 62.09765625 -4.03890625 62.09765625 -4.37890625 62.09765625 C-4.40203389 54.16151838 -4.41982348 46.22539449 -4.43071842 38.2892313 C-4.43594633 34.60451127 -4.4430423 30.91981422 -4.4543457 27.23510742 C-4.46517787 23.68194794 -4.47118378 20.12881062 -4.47378349 16.57563591 C-4.47563715 15.21719959 -4.47925663 13.85876454 -4.48463631 12.5003376 C-4.491851 10.60383402 -4.49231434 8.70730832 -4.49243164 6.81079102 C-4.49465225 5.72935318 -4.49687286 4.64791534 -4.49916077 3.53370667 C-4.31155793 -0.26664927 -3.9267967 0.11349123 0 0 Z " fill="#CED7FF" transform="translate(75.37890625,134.90234375)"/>
<path d="M0 0 C5.61 0 11.22 0 17 0 C17 0.33 17 0.66 17 1 C15.02 1 13.04 1 11 1 C11 2.98 11 4.96 11 7 C8.36 7.33 5.72 7.66 3 8 C2.01 5.36 1.02 2.72 0 0 Z " fill="#3346BE" transform="translate(97,198)"/>
<path d="M0 0 C4.62 0 9.24 0 14 0 C13.67 1.65 13.34 3.3 13 5 C9.32589215 6.17571451 5.83070817 6.07366746 2 6 C1.34 4.02 0.68 2.04 0 0 Z " fill="#2F40B6" transform="translate(127,198)"/>
<path d="M0 0 C1.9375 0.6875 1.9375 0.6875 4 2 C4.75 4.625 4.75 4.625 5 7 C5.66 7 6.32 7 7 7 C7 6.34 7 5.68 7 5 C8.65 5.33 10.3 5.66 12 6 C12.66 7.98 13.32 9.96 14 12 C14.66 12 15.32 12 16 12 C16 12.66 16 13.32 16 14 C13.30115732 14.49069867 11.57781514 14.37145259 9.25 12.875 C5.36861006 9.66281522 2.48755548 6.37809764 0 2 C0 1.34 0 0.68 0 0 Z " fill="#3D4FEA" transform="translate(42,212)"/>
<path d="M0 0 C4.62 0 9.24 0 14 0 C13.01 0.495 13.01 0.495 12 1 C11.67 1.99 11.34 2.98 11 4 C7.1496895 6.56687367 5.41430237 5.83288724 1 5 C0.67 3.35 0.34 1.7 0 0 Z " fill="#303DB3" transform="translate(72,198)"/>
<path d="M0 0 C0.33 0 0.66 0 1 0 C1.63230156 6.32301562 -0.66754377 10.88124833 -4.37890625 15.84375 C-5.55062409 17.25915845 -6.77079596 18.63421773 -8 20 C-8.66 19.67 -9.32 19.34 -10 19 C-9.835 18.21625 -9.67 17.4325 -9.5 16.625 C-8.9376293 14.11791961 -8.9376293 14.11791961 -9 12 C-7.35 12.33 -5.7 12.66 -4 13 C-3.67 11.02 -3.34 9.04 -3 7 C-2.34 7 -1.68 7 -1 7 C-0.67 4.69 -0.34 2.38 0 0 Z " fill="#4054D8" transform="translate(173,202)"/>
<path d="M0 0 C-1.32 0.33 -2.64 0.66 -4 1 C-4 1.66 -4 2.32 -4 3 C-4.99 3 -5.98 3 -7 3 C-7 4.32 -7 5.64 -7 7 C-7.7425 6.814375 -8.485 6.62875 -9.25 6.4375 C-11.94990963 6.00796892 -13.44631077 6.14877026 -16 7 C-12.01232717 2.52897289 -6.42446595 -2.82676502 0 0 Z " fill="#4D63DB" transform="translate(65,94)"/>
<path d="M0 0 C0 0.66 0 1.32 0 2 C0.66 2.33 1.32 2.66 2 3 C-3.61 3 -9.22 3 -15 3 C-15 5.64 -15 8.28 -15 11 C-15.33 11 -15.66 11 -16 11 C-16.02689216 9.52093108 -16.04634621 8.04172517 -16.0625 6.5625 C-16.07410156 5.73878906 -16.08570312 4.91507812 -16.09765625 4.06640625 C-16 2 -16 2 -15 1 C-12.8589527 0.76404785 -10.71139964 0.58578114 -8.5625 0.4375 C-7.38816406 0.35371094 -6.21382812 0.26992187 -5.00390625 0.18359375 C-3.3379239 0.08177168 -1.66909105 0 0 0 Z " fill="#5467EA" transform="translate(140,117)"/>
<path d="M0 0 C4.16296461 1.35369129 6.38753152 3.08643889 9.25 6.375 C9.93578125 7.14585938 10.6215625 7.91671875 11.328125 8.7109375 C12.93301273 10.90828379 13.5876513 12.34398926 14 15 C11.35247996 12.42215154 9.05567935 10.08351902 7 7 C6.01 6.67 5.02 6.34 4 6 C4 5.01 4 4.02 4 3 C2.35 3 0.7 3 -1 3 C-0.67 2.01 -0.34 1.02 0 0 Z " fill="#4A61DA" transform="translate(158,97)"/>
<path d="M0 0 C0.33 0 0.66 0 1 0 C1.06058594 0.80824219 1.12117188 1.61648437 1.18359375 2.44921875 C1.26738281 3.51785156 1.35117188 4.58648437 1.4375 5.6875 C1.51871094 6.74324219 1.59992188 7.79898438 1.68359375 8.88671875 C1.93733839 11.95668601 1.93733839 11.95668601 2.59375 14.75 C3.09325579 17.51649359 2.47052573 18.66445914 1 21 C0.67 21 0.34 21 0 21 C0 14.07 0 7.14 0 0 Z " fill="#3E54E5" transform="translate(89,140)"/>
<path d="M0 0 C-4.44602302 4.44602302 -9.01298852 5.11647986 -15 6 C-15 5.34 -15 4.68 -15 4 C-5.77448747 -0.59225513 -5.77448747 -0.59225513 0 0 Z " fill="#394CDA" transform="translate(162,223)"/>
<path d="M0 0 C0.66 0.33 1.32 0.66 2 1 C2 2.65 2 4.3 2 6 C-0.64458379 7.32229189 -2.67761301 7.09677194 -5.625 7.0625 C-6.62789062 7.05347656 -7.63078125 7.04445312 -8.6640625 7.03515625 C-9.43492187 7.02355469 -10.20578125 7.01195312 -11 7 C-11 6.67 -11 6.34 -11 6 C-7.7 5.34 -4.4 4.68 -1 4 C-0.67 2.68 -0.34 1.36 0 0 Z " fill="#3244CC" transform="translate(141,198)"/>
<path d="M0 0 C1.32 0.33 2.64 0.66 4 1 C4.33 3.31 4.66 5.62 5 8 C3.68 8 2.36 8 1 8 C1.020625 7.236875 1.04125 6.47375 1.0625 5.6875 C1.12942841 2.89814214 1.12942841 2.89814214 0 0 Z " fill="#4D6AF4" transform="translate(168,111)"/>
<path d="M0 0 C4.62 0 9.24 0 14 0 C12 2 12 2 8.125 2.0625 C7.06152344 2.03349609 7.06152344 2.03349609 5.9765625 2.00390625 C3.84444085 1.99969257 2.02243477 2.32585508 0 3 C0 2.01 0 1.02 0 0 Z " fill="#374CE0" transform="translate(100,206)"/>
<path d="M0 0 C1.65 0 3.3 0 5 0 C5.28875 0.61875 5.5775 1.2375 5.875 1.875 C6.93720042 4.13325765 6.93720042 4.13325765 9 6 C4.75177626 5.52797514 2.80010291 3.03344482 0 0 Z " fill="#364ACA" transform="translate(47,220)"/>
<path d="M0 0 C0.66 0.33 1.32 0.66 2 1 C1.34 3.64 0.68 6.28 0 9 C-0.66 9 -1.32 9 -2 9 C-3 6 -3 6 -1.5625 2.8125 C-1.046875 1.884375 -0.53125 0.95625 0 0 Z " fill="#3651DF" transform="translate(116,197)"/>
<path d="M0 0 C0.66 0.33 1.32 0.66 2 1 C0.6875 3.5 0.6875 3.5 -1 6 C-1.99 6 -2.98 6 -4 6 C-3.6875 4.125 -3.6875 4.125 -3 2 C-2.01 1.34 -1.02 0.68 0 0 Z " fill="#4E66F8" transform="translate(47,106)"/>
<path d="M0 0 C1.45792884 -0.05399736 2.91642712 -0.09279177 4.375 -0.125 C5.18710938 -0.14820313 5.99921875 -0.17140625 6.8359375 -0.1953125 C9 0 9 0 11 2 C6.58937864 3.0257259 4.07369424 3.03684712 0 1 C0 0.67 0 0.34 0 0 Z " fill="#364DDF" transform="translate(125,206)"/>
<path d="M0 0 C0.33 2.64 0.66 5.28 1 8 C-0.5 6.625 -0.5 6.625 -2 5 C-2 4.34 -2 3.68 -2 3 C-2.66 2.67 -3.32 2.34 -4 2 C-1 0 -1 0 0 0 Z " fill="#3E53EB" transform="translate(69,193)"/>
<path d="M0 0 C5.57142857 5.14285714 5.57142857 5.14285714 6 9 C0.42857143 3.85714286 0.42857143 3.85714286 0 0 Z " fill="#536AD5" transform="translate(166,103)"/>
</svg>
