<?xml version="1.0" encoding="UTF-8"?>
<svg version="1.1" xmlns="http://www.w3.org/2000/svg" width="835" height="299">
<path d="M0 0 C0.77149384 -0.0065712 1.54298767 -0.0131424 2.33786011 -0.01991272 C4.88271194 -0.03956689 7.42750485 -0.0512933 9.97241211 -0.0612793 C11.28352368 -0.06739259 11.28352368 -0.06739259 12.62112236 -0.07362938 C17.25148148 -0.0944608 21.88181125 -0.10877278 26.51220703 -0.11816406 C31.26750885 -0.12919701 36.02233871 -0.16356916 40.7774744 -0.20333576 C44.4572174 -0.22963033 48.13685034 -0.23786742 51.816679 -0.24144554 C53.56796885 -0.24628169 55.31925477 -0.25780962 57.07045174 -0.27648354 C70.63481058 -0.41208927 82.72616633 0.50303324 93.18725586 10.17700195 C100.18859757 17.17834366 101.79176148 26.49208131 101.92553711 36.00512695 C101.96799309 37.54683563 101.96799309 37.54683563 102.01130676 39.11968994 C102.09426997 42.47215005 102.14490896 45.82379474 102.18725586 49.17700195 C102.20415466 50.32386475 102.22105347 51.47072754 102.23846436 52.65234375 C102.33640321 59.85315732 102.37304062 67.05270788 102.37255859 74.25415039 C102.37477891 77.96552461 102.39312855 81.67661606 102.41186523 85.38793945 C102.41479475 87.79158429 102.4167825 90.19523051 102.41772461 92.59887695 C102.42491013 93.68658386 102.43209564 94.77429077 102.4394989 95.8949585 C102.40843037 106.42530856 101.50960034 115.95160485 96.18725586 125.17700195 C95.52725586 125.17700195 94.86725586 125.17700195 94.18725586 125.17700195 C93.84694336 126.04325195 93.84694336 126.04325195 93.49975586 126.92700195 C89.91265512 133.07631751 82.73530675 135.79365124 76.19110107 137.71910858 C69.29786812 139.29426302 62.02549358 138.88716523 54.99975586 138.84106445 C53.16617513 138.8444423 51.3325966 138.84930292 49.49902344 138.8555603 C45.67645725 138.86288611 41.85447958 138.85236609 38.03198242 138.82885742 C33.16688675 138.80037206 28.30317084 138.81679932 23.43812561 138.84671974 C19.65789662 138.86490979 15.87798716 138.8589815 12.0977478 138.84608078 C10.30544872 138.84277899 8.51311926 138.84671825 6.72085571 138.85847855 C-4.66166462 138.91680233 -16.22509222 138.8873929 -25.32739258 130.9972229 C-34.77247378 121.16070794 -35.91758805 111.35399064 -36.38305664 98.2121582 C-36.42520294 97.0292067 -36.46734924 95.84625519 -36.51077271 94.62745667 C-36.91759177 81.90960194 -36.91364991 69.20390669 -36.7355957 56.48193359 C-36.70331948 53.8733235 -36.68241594 51.26455116 -36.67211914 48.65576172 C-36.65687636 44.80672268 -36.60960557 40.95925317 -36.55493164 37.1105957 C-36.55572723 35.95635605 -36.55652283 34.80211639 -36.55734253 33.61289978 C-36.36467496 24.4025672 -33.86208315 16.45520562 -27.12524414 9.86450195 C-19.159498 2.41170158 -10.67019746 0.03981667 0 0 Z " fill="#465CF9" transform="translate(73.812744140625,91.822998046875)"/>
<path d="M0 0 C5.61 0 11.22 0 17 0 C17.495 6.435 17.495 6.435 18 13 C18.33 13 18.66 13 19 13 C19.35340873 26.42483213 19.66776623 39.85012407 19.94281006 53.27679443 C19.99571817 55.79611283 20.05305047 58.31528528 20.11181641 60.83447266 C20.20419521 64.88953671 20.26181242 68.94420164 20.3125 73 C20.34214844 74.18940186 20.37179688 75.37880371 20.40234375 76.60424805 C20.41394531 78.22327026 20.41394531 78.22327026 20.42578125 79.875 C20.44036377 80.80054688 20.45494629 81.72609375 20.4699707 82.6796875 C20 85 20 85 18.09008789 86.77392578 C13.76231417 89.31265719 10.77285771 89.00348553 5.875 88.125 C4.29332031 87.85042969 4.29332031 87.85042969 2.6796875 87.5703125 C0 87 0 87 -2 86 C-1.67 84.02 -1.34 82.04 -1 80 C-3.31 79.01 -5.62 78.02 -8 77 C-8.185625 78.0828125 -8.185625 78.0828125 -8.375 79.1875 C-9.01242175 82.05589786 -9.60015909 84.41029431 -11 87 C-15.14681016 89.5612651 -19.2796678 89.23214749 -24 89 C-24.99 88.505 -24.99 88.505 -26 88 C-26.144375 87.38125 -26.28875 86.7625 -26.4375 86.125 C-27.1013364 83.61717359 -28.15995479 82.76004324 -30 81 C-30 80.34 -30 79.68 -30 79 C-31.65 79 -33.3 79 -35 79 C-35.33 81.64 -35.66 84.28 -36 87 C-42.03554548 87.69260358 -47.92406438 88.11251733 -54 88 C-57.95725752 79.34937904 -58.50634056 71.85792766 -58.2421875 62.43359375 C-58.21729406 61.06407856 -58.19397737 59.69453391 -58.17214966 58.32496643 C-58.1224788 55.47979148 -58.05901412 52.63539889 -57.984375 49.79077148 C-57.88906511 46.14262903 -57.82128837 42.49461459 -57.76266289 38.84571743 C-57.71576331 36.02919666 -57.65852223 33.21296663 -57.59769058 30.39671516 C-57.55523736 28.39699458 -57.51841118 26.3971571 -57.48165894 24.39732361 C-57.44887848 23.19169266 -57.41609802 21.98606171 -57.38232422 20.74389648 C-57.35693573 19.68009262 -57.33154724 18.61628876 -57.3053894 17.52024841 C-57 15 -57 15 -55 13 C-52.12373171 12.77492616 -49.37546976 12.67569594 -46.5 12.6875 C-45.71496094 12.67138672 -44.92992188 12.65527344 -44.12109375 12.63867188 C-41.84375 12.63671875 -41.84375 12.63671875 -38 13 C-32.47574006 21.28638992 -33.81938953 34.61243552 -33.8125 44.1875 C-33.81169434 45.28658691 -33.81088867 46.38567383 -33.81005859 47.51806641 C-33.84043416 51.87257261 -33.87597332 55.78463054 -35 60 C-35.22390317 62.75317974 -35.41393662 65.49305329 -35.5625 68.25 C-35.60568359 68.99507813 -35.64886719 69.74015625 -35.69335938 70.5078125 C-35.79896725 72.338349 -35.89994201 74.16915176 -36 76 C-34.35 76 -32.7 76 -31 76 C-30.67 62.14 -30.34 48.28 -30 34 C-29.34 34 -28.68 34 -28 34 C-27.67 48.19 -27.34 62.38 -27 77 C-21.72 77.33 -16.44 77.66 -11 78 C-11 63.48 -11 48.96 -11 34 C-7.0282072 39.9576892 -5.40759727 46.89116723 -6 54 C-6.495 54.99 -6.495 54.99 -7 56 C-7.07194869 58.88370333 -7.09291708 61.74239664 -7.0625 64.625 C-7.05798828 65.42679687 -7.05347656 66.22859375 -7.04882812 67.0546875 C-7.03703168 69.03649006 -7.01909605 71.01825433 -7 73 C-6.01 73 -5.02 73 -4 73 C-3.67 51.88 -3.34 30.76 -3 9 C-2.34 8.67 -1.68 8.34 -1 8 C-0.67 5.36 -0.34 2.72 0 0 Z " fill="#3B50DA" transform="translate(126,120)"/>
<path d="M0 0 C1.44498338 2.88996676 1.12731121 5.39221212 1.12939453 8.62109375 C1.13202301 9.64083786 1.13202301 9.64083786 1.13470459 10.68118286 C1.13911375 12.93331437 1.13618841 15.18536766 1.1328125 17.4375 C1.13348581 18.99926773 1.13445606 20.56103536 1.13571167 22.12280273 C1.13718737 25.39795936 1.13503817 28.67308873 1.13037109 31.94824219 C1.12467388 36.15177072 1.12795356 40.35523541 1.13394356 44.5587616 C1.1375526 47.78430667 1.136409 51.00983655 1.13381577 54.23538208 C1.13314745 55.7855734 1.13397161 57.33576609 1.13629532 58.88595581 C1.13882745 61.05030995 1.13497332 63.21455989 1.12939453 65.37890625 C1.12859894 66.6119751 1.12780334 67.84504395 1.12698364 69.11547852 C1 72 1 72 0 74 C-12.09247292 75.04359698 -12.09247292 75.04359698 -15.94921875 72.93359375 C-17.58398687 71.06461816 -18.76099581 69.15524258 -20 67 C-20.99775833 65.43556351 -21.99604302 63.87144737 -23.0012207 62.31176758 C-23.75936031 61.13165238 -24.51168545 59.94778423 -25.25854492 58.76049805 C-32.07304423 47.99756861 -40.117048 37.99247436 -48 28 C-49.54083455 29.54083455 -49.15481845 30.99026007 -49.18945312 33.13671875 C-49.20617065 34.01432861 -49.22288818 34.89193848 -49.2401123 35.79614258 C-49.25368774 36.75029053 -49.26726318 37.70443848 -49.28125 38.6875 C-49.29965942 39.66033936 -49.31806885 40.63317871 -49.33703613 41.63549805 C-49.39599022 44.75693523 -49.44872456 47.87842778 -49.5 51 C-49.56741771 55.10428918 -49.64108637 59.20839337 -49.71875 63.3125 C-49.73232544 64.26664795 -49.74590088 65.2207959 -49.7598877 66.20385742 C-49.77660522 67.08146729 -49.79332275 67.95907715 -49.81054688 68.86328125 C-49.82307495 69.63969971 -49.83560303 70.41611816 -49.84851074 71.21606445 C-50 73 -50 73 -51 74 C-52.99799572 74.09873816 -54.99957158 74.12971799 -57 74.125 C-58.093125 74.12757813 -59.18625 74.13015625 -60.3125 74.1328125 C-63 74 -63 74 -64 73 C-64.0996392 70.76612794 -64.12799795 68.52906141 -64.12939453 66.29296875 C-64.13114685 65.59217194 -64.13289917 64.89137512 -64.13470459 64.16934204 C-64.13912266 61.84203651 -64.13618529 59.51480636 -64.1328125 57.1875 C-64.13348555 55.57706691 -64.13445559 53.96663391 -64.13571167 52.35620117 C-64.13718858 48.97671545 -64.13503431 45.5972561 -64.13037109 42.21777344 C-64.1246738 37.87623495 -64.12795285 33.53475827 -64.13394356 29.19322205 C-64.13754936 25.86649099 -64.1364105 22.5397747 -64.13381577 19.21304321 C-64.13314655 17.61178582 -64.13397474 16.0105271 -64.13629532 14.40927124 C-64.13882216 12.17515489 -64.13498085 9.94114 -64.12939453 7.70703125 C-64.12859894 6.4331958 -64.12780334 5.15936035 -64.12698364 3.84692383 C-64 1 -64 1 -63 0 C-58.47355184 -0.89585953 -54.50692655 -1.04716744 -50 0 C-46.15046195 3.47032982 -43.69779624 7.60811518 -41 12 C-39.81559741 13.56012694 -38.6092646 15.10401464 -37.375 16.625 C-32.21329416 23.23246141 -27.50483131 30.09730528 -23.12890625 37.24609375 C-21.58934579 39.63800602 -19.80659892 41.80627273 -18 44 C-17.67 44.66 -17.34 45.32 -17 46 C-15.47600993 44.47600993 -15.84579271 43.0968179 -15.81054688 40.97094727 C-15.78547058 39.68940514 -15.78547058 39.68940514 -15.7598877 38.38197327 C-15.74631226 37.45283615 -15.73273682 36.52369904 -15.71875 35.56640625 C-15.70034058 34.61813461 -15.68193115 33.66986298 -15.66296387 32.69285583 C-15.60401328 29.649469 -15.55128863 26.60602505 -15.5 23.5625 C-15.43249604 19.56367893 -15.35879995 15.56504366 -15.28125 11.56640625 C-15.26767456 10.63929337 -15.25409912 9.71218048 -15.2401123 8.75697327 C-15.21503601 7.4707029 -15.21503601 7.4707029 -15.18945312 6.15844727 C-15.17066101 5.02379784 -15.17066101 5.02379784 -15.15148926 3.8662262 C-15 2 -15 2 -14 0 C-9.53493582 -1.53486581 -4.54653186 -1.080271 0 0 Z " fill="#383838" transform="translate(300,123)"/>
<path d="M0 0 C1.85528026 5.19061557 -0.18789043 9.03658022 -2.125 13.875 C-2.78037614 15.58136769 -3.43400329 17.28840808 -4.0859375 18.99609375 C-4.41174805 19.84155762 -4.73755859 20.68702148 -5.07324219 21.55810547 C-8.4436647 30.43876036 -11.28276784 39.42657037 -13.32421875 48.70703125 C-14 51 -14 51 -16 53 C-18.93359375 53.3359375 -18.93359375 53.3359375 -22.4375 53.375 C-23.59121094 53.40335938 -24.74492188 53.43171875 -25.93359375 53.4609375 C-29 53 -29 53 -30.82421875 51.31640625 C-32.13962952 48.72491593 -32.78053289 46.40744976 -33.375 43.5625 C-34.94117496 36.77015833 -37.37055924 30.44368881 -40 24 C-42.02070529 27.03105794 -42.75107566 29.23876095 -43.69140625 32.7265625 C-43.99626953 33.8403125 -44.30113281 34.9540625 -44.61523438 36.1015625 C-44.92783203 37.26429688 -45.24042969 38.42703125 -45.5625 39.625 C-46.18584531 41.93048897 -46.81199295 44.23522273 -47.44140625 46.5390625 C-47.71670166 47.56209473 -47.99199707 48.58512695 -48.27563477 49.63916016 C-49 52 -49 52 -50 53 C-52.28593317 53.20462317 -54.58073737 53.31400733 -56.875 53.375 C-58.13054688 53.42398438 -59.38609375 53.47296875 -60.6796875 53.5234375 C-64 53 -64 53 -65.7734375 51.04296875 C-67.37496149 47.06976113 -68.59533175 43.06011987 -69.75 38.9375 C-72.10955115 30.73072888 -74.78184963 22.69587624 -77.81542969 14.71264648 C-79.57922143 9.90207888 -80.34221836 6.12643104 -80 1 C-75.71 1 -71.42 1 -67 1 C-65.24405481 4.51189038 -64.48705173 7.35614279 -63.70703125 11.1484375 C-62.62760481 15.50192537 -61.14867905 19.71219246 -59.67651367 23.9465332 C-58 28.80685602 -58 28.80685602 -58 31 C-57.34 31 -56.68 31 -56 31 C-53.82518007 24.59000441 -51.78304654 18.14590004 -49.80200195 11.67382812 C-48.67548576 8.02699324 -47.42114616 4.55286539 -46 1 C-42.04 1 -38.08 1 -34 1 C-32.09529062 5.08152009 -30.68037346 9.00792292 -29.5625 13.375 C-28.38572841 17.91308193 -26.80577881 22.00525961 -24.76953125 26.22265625 C-24 28 -24 28 -24 30 C-23.34 30 -22.68 30 -22 30 C-21.81824219 29.3709375 -21.63648438 28.741875 -21.44921875 28.09375 C-20.24645313 23.99817886 -19.02909971 19.96275847 -17.4375 16 C-15.67158613 11.46438964 -14.83282989 6.78142335 -14 2 C-9.07262981 0.02905192 -5.21979128 -0.1799928 0 0 Z " fill="#373737" transform="translate(704,144)"/>
<path d="M0 0 C1.01452744 -0.00637985 2.02905487 -0.0127597 3.07432556 -0.01933289 C4.17845291 -0.02044571 5.28258026 -0.02155853 6.42016602 -0.02270508 C8.10892601 -0.02769768 8.10892601 -0.02769768 9.83180237 -0.03279114 C12.21843048 -0.03786527 14.60506572 -0.04019931 16.99169922 -0.04003906 C20.65482201 -0.04222484 24.31764349 -0.06037373 27.98071289 -0.0793457 C30.2938629 -0.08227958 32.60701434 -0.08426442 34.92016602 -0.08520508 C36.02226913 -0.09239059 37.12437225 -0.09957611 38.25987244 -0.10697937 C39.78639183 -0.10236443 39.78639183 -0.10236443 41.34375 -0.09765625 C42.24230209 -0.09908127 43.14085419 -0.10050629 44.06663513 -0.10197449 C46.23657227 0.14526367 46.23657227 0.14526367 48.23657227 2.14526367 C48.50219727 4.23901367 48.50219727 4.23901367 48.48657227 6.64526367 C48.49430664 7.83635742 48.49430664 7.83635742 48.50219727 9.05151367 C48.23657227 11.14526367 48.23657227 11.14526367 46.23657227 13.14526367 C43.58869437 13.39069508 41.03753403 13.51875753 38.38500977 13.55932617 C37.61097809 13.57869232 36.83694641 13.59805847 36.03945923 13.61801147 C33.56360951 13.67786197 31.08771343 13.72421378 28.61157227 13.77026367 C26.93446849 13.80843849 25.25738442 13.84748993 23.58032227 13.88745117 C19.46584064 13.98522103 15.35157267 14.06474358 11.23657227 14.14526367 C11.23657227 20.08526367 11.23657227 26.02526367 11.23657227 32.14526367 C14.68416992 32.12786133 14.68416992 32.12786133 18.20141602 32.11010742 C20.41878115 32.10231659 22.63614477 32.09623998 24.85351562 32.09033203 C26.39876992 32.08529227 27.94401943 32.07846048 29.48925781 32.06982422 C31.70582255 32.05774291 33.92232445 32.05203194 36.13891602 32.04760742 C36.83371567 32.04244614 37.52851532 32.03728485 38.24436951 32.03196716 C39.90886556 32.0317709 41.57322725 32.08337238 43.23657227 32.14526367 C44.23657227 33.14526367 44.23657227 33.14526367 44.36938477 35.61401367 C44.36680664 36.61432617 44.36422852 37.61463867 44.36157227 38.64526367 C44.36543945 40.14573242 44.36543945 40.14573242 44.36938477 41.67651367 C44.23657227 44.14526367 44.23657227 44.14526367 43.23657227 45.14526367 C40.86318587 45.30498344 38.51538955 45.40450697 36.13891602 45.46166992 C35.07562828 45.49284157 35.07562828 45.49284157 33.99085999 45.52464294 C31.71869922 45.59020965 29.44641962 45.64905597 27.17407227 45.70776367 C25.63695043 45.75094216 24.09984076 45.79455622 22.56274414 45.83862305 C18.78747636 45.94589816 15.01208867 46.04714505 11.23657227 46.14526367 C11.21675293 46.92240723 11.19693359 47.69955078 11.17651367 48.50024414 C11.08150218 52.00727058 10.97172668 55.51368161 10.86157227 59.02026367 C10.83063477 60.24358398 10.79969727 61.4669043 10.76782227 62.72729492 C10.72915039 63.89389648 10.69047852 65.06049805 10.65063477 66.26245117 C10.61921387 67.34123535 10.58779297 68.42001953 10.55541992 69.53149414 C10.23657227 72.14526367 10.23657227 72.14526367 8.23657227 74.14526367 C5.23266602 74.37573242 5.23266602 74.37573242 1.67407227 74.33276367 C0.4971582 74.32631836 -0.67975586 74.31987305 -1.89233398 74.31323242 C-4.76342773 74.14526367 -4.76342773 74.14526367 -5.76342773 73.14526367 C-5.86306693 70.91139161 -5.89142568 68.67432508 -5.89282227 66.43823242 C-5.89457458 65.73743561 -5.8963269 65.03663879 -5.89813232 64.31460571 C-5.90255039 61.98730019 -5.89961302 59.66007003 -5.89624023 57.33276367 C-5.89691329 55.72233058 -5.89788332 54.11189759 -5.8991394 52.50146484 C-5.90061632 49.12197912 -5.89846204 45.74251978 -5.89379883 42.36303711 C-5.88810154 38.02149862 -5.89138058 33.68002194 -5.89737129 29.33848572 C-5.90097709 26.01175466 -5.89983823 22.68503837 -5.8972435 19.35830688 C-5.89657428 17.75704949 -5.89740247 16.15579077 -5.89972305 14.55453491 C-5.90224989 12.32041856 -5.89840858 10.08640367 -5.89282227 7.85229492 C-5.89202667 6.57845947 -5.89123108 5.30462402 -5.89041138 3.9921875 C-5.68380417 -0.63986575 -4.1891858 0.01778693 0 0 Z " fill="#383838" transform="translate(483.763427734375,122.854736328125)"/>
<path d="M0 0 C4.5080943 2.877507 8.20068319 6.73609113 9.50952148 12.08056641 C9.83386619 14.34476582 10.06453537 16.5953306 10.25 18.875 C10.32734375 19.65875 10.4046875 20.4425 10.484375 21.25 C10.67123005 23.16526429 10.83771693 25.08249737 11 27 C6.69228624 29.12264156 2.77953302 29.26296928 -1.92578125 29.1953125 C-2.67337204 29.1924826 -3.42096283 29.18965271 -4.19120789 29.18673706 C-6.5651388 29.17559469 -8.93868425 29.15050162 -11.3125 29.125 C-12.9277289 29.11496249 -14.54296376 29.10583799 -16.15820312 29.09765625 C-20.10561594 29.07567489 -24.05274274 29.04118657 -28 29 C-27.30121365 33.30680566 -26.42154879 35.18225394 -23 38 C-17.95023398 39.68325534 -12.92502558 39.90107581 -8.0625 37.625 C-5.93916257 36.01770773 -5.93916257 36.01770773 -4 34 C-1.72265625 33.55078125 -1.72265625 33.55078125 0.9375 33.3125 C1.81277344 33.22613281 2.68804687 33.13976562 3.58984375 33.05078125 C6 33 6 33 9 34 C9.42963786 36.9358587 9.44614849 39.14625906 8.05078125 41.81640625 C3.86910382 47.36401843 -1.29388236 49.64271391 -8 51 C-16.96755113 51.86725071 -26.18899533 52.13047539 -34 47 C-40.23176423 41.64494785 -43.54198194 35.83781574 -44.3125 27.69921875 C-44.65469694 17.74342665 -43.09710982 11.1402461 -36.4375 3.6875 C-25.7833597 -6.21551353 -12.51404082 -5.87228453 0 0 Z M-26 12 C-27.34689915 14.57099402 -27.34689915 14.57099402 -28 17 C-24.7492389 18.62538055 -21.19264307 18.14277895 -17.625 18.125 C-16.85671875 18.12886719 -16.0884375 18.13273437 -15.296875 18.13671875 C-14.17925781 18.13478516 -14.17925781 18.13478516 -13.0390625 18.1328125 C-12.36053223 18.13168457 -11.68200195 18.13055664 -10.98291016 18.12939453 C-8.88764583 17.99266834 -7.01770852 17.56770955 -5 17 C-5.03093173 14.58414426 -5.03093173 14.58414426 -6 12 C-11.88387972 7.73418721 -20.3390703 7.0252436 -26 12 Z " fill="#393838" transform="translate(457,147)"/>
<path d="M0 0 C4.88002032 4.02835883 7.06305631 8.25176163 8.9375 14.1875 C9.95580422 24.87969433 8.79618681 33.4948609 1.93359375 42.0859375 C-4.72174819 48.6668349 -13.37090745 49.15261585 -22.23535156 49.19970703 C-30.34093574 49.04575974 -35.7581448 46.66765812 -41.6875 41.125 C-46.90215637 32.99627096 -49.07825792 25.50385861 -47.8125 15.8125 C-45.80115135 8.17582866 -42.32982571 1.81561874 -35.5 -2.4375 C-23.76660974 -8.50649496 -10.70770117 -7.66335476 0 0 Z M-30.75 11.0625 C-33.89480524 15.30798707 -33.54934687 20.37554444 -33.3671875 25.44921875 C-32.56391964 30.31973723 -30.74573164 32.92124619 -26.8125 35.8125 C-23.12213433 38.14325727 -19.92818594 38.03812215 -15.73828125 37.34375 C-11.24810134 36.10507968 -9.26969306 33.6007639 -7 29.6875 C-5.31354457 25.11838237 -4.89182026 20.60003463 -5.8125 15.8125 C-7.67558947 11.97340654 -10.04998234 9.58200499 -13.96875 7.87109375 C-20.47945545 6.0984873 -25.31510404 6.89960096 -30.75 11.0625 Z " fill="#383737" transform="translate(610.8125,149.1875)"/>
<path d="M0 0 C7.04990308 4.69993539 10.22993223 9.76002935 12 18 C12.90380405 27.14175576 11.31531532 35.92904069 5.75 43.4375 C-1.82836654 50.49915973 -10.11659086 51.4831007 -20.1640625 51.26953125 C-27.55519237 50.75019524 -32.81857542 48.65626546 -37.9375 43.25 C-43.32405589 36.39323121 -45.51332222 28.43884614 -44.8203125 19.74609375 C-43.5855255 12.50117 -39.80009036 6.96009552 -34.8125 1.6875 C-23.26855049 -5.23886971 -12.06648879 -6.12329282 0 0 Z M-28 15 C-30.53998872 19.30386977 -30.6258238 23.11376033 -30 28 C-28.64724285 32.8716381 -26.62703959 36.04532416 -22.1875 38.5625 C-18.09854171 40.25108833 -15.28335275 40.40182454 -11 39 C-7.24984505 36.91912134 -4.68480849 34.68114872 -3.046875 30.66015625 C-1.66500564 24.91122538 -1.77250224 20.475932 -4 15 C-6.86247934 11.38423662 -8.32897106 10.27926785 -12.8515625 9.5234375 C-19.68817888 9.20111564 -23.48035307 9.76672461 -28 15 Z " fill="#383838" transform="translate(355,147)"/>
<path d="M0 0 C1.79244141 0.01740234 1.79244141 0.01740234 3.62109375 0.03515625 C5.41740234 0.04869141 5.41740234 0.04869141 7.25 0.0625 C8.17683594 0.07410156 9.10367187 0.08570313 10.05859375 0.09765625 C11.60426945 4.73468336 11.11595003 9.22237276 11.05859375 14.09765625 C16.50359375 14.59265625 16.50359375 14.59265625 22.05859375 15.09765625 C22.9375 22.8125 22.9375 22.8125 23.05859375 25.09765625 C21.02460271 27.13164729 17.06461765 26.59717708 14.30859375 26.81640625 C12.09194023 26.8596629 12.09194023 26.8596629 11.05859375 28.09765625 C10.63692238 36.79152768 11.17168799 45.45032512 12.05859375 54.09765625 C12.76886719 54.23042969 13.47914063 54.36320312 14.2109375 54.5 C15.13003906 54.67660156 16.04914063 54.85320312 16.99609375 55.03515625 C17.91261719 55.20917969 18.82914062 55.38320312 19.7734375 55.5625 C22.05859375 56.09765625 22.05859375 56.09765625 23.05859375 57.09765625 C23.40869966 60.80877894 23.53819371 63.24745631 21.68359375 66.53515625 C17.54578763 68.99813608 13.74736964 68.7831498 9.05859375 68.09765625 C4.79043848 66.81459117 1.22889661 65.26795911 -1.94140625 62.09765625 C-4.04652739 57.88741397 -4.05955418 54.03538438 -4.0390625 49.36328125 C-4.03583984 48.06777344 -4.03261719 46.77226562 -4.02929688 45.4375 C-4.02094223 44.07421808 -4.01247729 42.71093683 -4.00390625 41.34765625 C-3.99888793 39.9687516 -3.9943256 38.58984521 -3.99023438 37.2109375 C-3.97844718 33.83979966 -3.9619926 30.46874997 -3.94140625 27.09765625 C-5.92708333 27.13020833 -7.91276042 27.16276042 -9.8984375 27.1953125 C-11.94140625 27.09765625 -11.94140625 27.09765625 -14.94140625 26.09765625 C-16.35827744 21.84704269 -15.13460664 19.37914 -13.94140625 15.09765625 C-10.64140625 14.76765625 -7.34140625 14.43765625 -3.94140625 14.09765625 C-3.95300781 13.17082031 -3.96460938 12.24398437 -3.9765625 11.2890625 C-3.98558594 10.09152344 -3.99460937 8.89398438 -4.00390625 7.66015625 C-4.01550781 6.46519531 -4.02710938 5.27023438 -4.0390625 4.0390625 C-3.90927257 0.12978993 -3.90927257 0.12978993 0 0 Z " fill="#383838" transform="translate(383.94140625,129.90234375)"/>
<path d="M0 0 C5.61 0 11.22 0 17 0 C17 25.74 17 51.48 17 78 C11.39 78 5.78 78 0 78 C0 52.26 0 26.52 0 0 Z " fill="#D3DAFD" transform="translate(126,120)"/>
<path d="M0 0 C0.88042969 0.00644531 1.76085937 0.01289062 2.66796875 0.01953125 C4.8125 0.1875 4.8125 0.1875 5.8125 1.1875 C5.91217534 3.44669993 5.94049831 5.70906173 5.94189453 7.97045898 C5.94364685 8.67940308 5.94539917 9.38834717 5.94720459 10.11877441 C5.95162336 12.47373874 5.94868473 14.82862859 5.9453125 17.18359375 C5.94598561 18.81405146 5.94695569 20.44450907 5.94821167 22.07496643 C5.94968874 25.49733431 5.94753409 28.91967615 5.94287109 32.34204102 C5.9371783 36.73504686 5.9404499 41.12799155 5.94644356 45.52099514 C5.95005278 48.88980065 5.94890884 52.2585916 5.94631577 55.62739754 C5.94564726 57.24736602 5.94647225 58.86733582 5.94879532 60.48730278 C5.95132725 62.74995307 5.94747339 65.01250365 5.94189453 67.27514648 C5.94070114 69.20921608 5.94070114 69.20921608 5.93948364 71.18235779 C5.8125 74.1875 5.8125 74.1875 4.8125 76.1875 C2.66673363 76.21435938 0.52087355 76.23383088 -1.625 76.25 C-2.81996094 76.26160156 -4.01492188 76.27320313 -5.24609375 76.28515625 C-8.1875 76.1875 -8.1875 76.1875 -9.1875 75.1875 C-9.28189978 72.91758113 -9.30492226 70.64468033 -9.30102539 68.37280273 C-9.30117142 67.66064606 -9.30131744 66.94848938 -9.3014679 66.2147522 C-9.3007687 63.85016888 -9.29297606 61.48566339 -9.28515625 59.12109375 C-9.28329209 57.48584537 -9.28186818 55.85059643 -9.28086853 54.21534729 C-9.27704318 49.90315215 -9.26721275 45.59099048 -9.25616455 41.27880859 C-9.2459508 36.88184054 -9.24137099 32.48486711 -9.23632812 28.08789062 C-9.22559049 19.45441169 -9.20851387 10.82096 -9.1875 2.1875 C-5.91308823 0.43457594 -3.7378757 -0.06073358 0 0 Z " fill="#383838" transform="translate(549.1875,120.8125)"/>
<path d="M0 0 C1.48831242 0.00667405 2.97660807 0.01863442 4.46484375 0.03515625 C5.22345703 0.03966797 5.98207031 0.04417969 6.76367188 0.04882812 C8.64326246 0.06064945 10.52281274 0.07858547 12.40234375 0.09765625 C12.42547112 8.16417799 12.44326084 16.23068597 12.45415592 24.29723263 C12.45938389 28.04248662 12.46647997 31.78771801 12.4777832 35.53295898 C12.48861516 39.14447312 12.49462124 42.75596546 12.49722099 46.36749458 C12.49907469 47.74825954 12.50269424 49.12902325 12.50807381 50.50977898 C12.51528822 52.43741577 12.51575184 54.36507432 12.51586914 56.29272461 C12.51808975 57.39192734 12.52031036 58.49113007 12.52259827 59.62364197 C12.40234375 62.09765625 12.40234375 62.09765625 11.40234375 63.09765625 C8.89098271 63.19740657 6.4133096 63.23647808 3.90234375 63.22265625 C3.19980469 63.22652344 2.49726562 63.23039062 1.7734375 63.234375 C-3.47104247 63.22427003 -3.47104247 63.22427003 -4.59765625 62.09765625 C-4.6968142 60.20066776 -4.72564939 58.29996838 -4.72705078 56.40039062 C-4.73020294 55.18242798 -4.7333551 53.96446533 -4.73660278 52.70959473 C-4.734813 51.3701982 -4.73276205 50.03080201 -4.73046875 48.69140625 C-4.73114185 47.32759585 -4.73211192 45.96378557 -4.73336792 44.59997559 C-4.73484463 41.73835104 -4.73269122 38.87675765 -4.72802734 36.01513672 C-4.72233006 32.33947011 -4.72560921 28.66387651 -4.73159981 24.98821259 C-4.73520616 22.17103521 -4.7340665 19.35387527 -4.73147202 16.53669739 C-4.73080295 15.18105562 -4.73163046 13.82541229 -4.73395157 12.46977234 C-4.73647926 10.57815581 -4.73194639 8.68653376 -4.72705078 6.79492188 C-4.72625519 5.71650024 -4.72545959 4.63807861 -4.72463989 3.52697754 C-4.52086665 -0.37140395 -4.06727057 0.11040365 0 0 Z " fill="#F1F3FC" transform="translate(75.59765625,134.90234375)"/>
<path d="M0 0 C5.61 0 11.22 0 17 0 C17 14.52 17 29.04 17 44 C11.72 44 6.44 44 1 44 C0 43 0 43 -0.12025452 41.24729919 C-0.11803391 40.48562943 -0.11581329 39.72395966 -0.11352539 38.93920898 C-0.11344986 38.07839218 -0.11337433 37.21757538 -0.11329651 36.33067322 C-0.10813522 35.39526199 -0.10297394 34.45985077 -0.09765625 33.49609375 C-0.0962413 32.54307877 -0.09482635 31.59006378 -0.09336853 30.60816956 C-0.08775152 27.55124835 -0.07519616 24.49439923 -0.0625 21.4375 C-0.05748719 19.37044376 -0.05292391 17.30338638 -0.04882812 15.23632812 C-0.03777656 10.15752412 -0.02050055 5.0787743 0 0 Z " fill="#F2F4FC" transform="translate(98,154)"/>
<path d="M0 0 C0.77149384 -0.0065712 1.54298767 -0.0131424 2.33786011 -0.01991272 C4.88271194 -0.03956689 7.42750485 -0.0512933 9.97241211 -0.0612793 C11.28352368 -0.06739259 11.28352368 -0.06739259 12.62112236 -0.07362938 C17.25148148 -0.0944608 21.88181125 -0.10877278 26.51220703 -0.11816406 C31.26750885 -0.12919701 36.02233871 -0.16356916 40.7774744 -0.20333576 C44.4572174 -0.22963033 48.13685034 -0.23786742 51.816679 -0.24144554 C53.56796885 -0.24628169 55.31925477 -0.25780962 57.07045174 -0.27648354 C70.63481058 -0.41208927 82.72616633 0.50303324 93.18725586 10.17700195 C100.18859757 17.17834366 101.79176148 26.49208131 101.92553711 36.00512695 C101.96799309 37.54683563 101.96799309 37.54683563 102.01130676 39.11968994 C102.09426997 42.47215005 102.14490896 45.82379474 102.18725586 49.17700195 C102.20415466 50.32386475 102.22105347 51.47072754 102.23846436 52.65234375 C102.33640321 59.85315732 102.37304062 67.05270788 102.37255859 74.25415039 C102.37477891 77.96552461 102.39312855 81.67661606 102.41186523 85.38793945 C102.41479475 87.79158429 102.4167825 90.19523051 102.41772461 92.59887695 C102.42491013 93.68658386 102.43209564 94.77429077 102.4394989 95.8949585 C102.41804572 103.16628741 101.59039506 110.04428211 100.18725586 117.17700195 C99.85725586 117.17700195 99.52725586 117.17700195 99.18725586 117.17700195 C99.06225586 111.42700195 99.06225586 111.42700195 100.18725586 109.17700195 C99.52725586 109.17700195 98.86725586 109.17700195 98.18725586 109.17700195 C98.35180771 108.18039047 98.51635956 107.18377899 98.68589783 106.15696716 C99.24078115 102.25020163 99.26891546 98.4463513 99.20898438 94.49755859 C99.19937683 93.76501862 99.18976929 93.03247864 99.17987061 92.27774048 C99.14715549 89.88077327 99.10672067 87.48400441 99.06616211 85.0871582 C99.04183404 83.41565122 99.01799187 81.74413711 98.99461365 80.07261658 C98.93203989 75.69139422 98.86289883 71.31029958 98.7923584 66.92919922 C98.72143244 62.45131199 98.65676109 57.97333482 98.59155273 53.49536133 C98.4628851 44.72247522 98.32727468 35.9497142 98.18725586 27.17700195 C97.19725586 26.84700195 96.20725586 26.51700195 95.18725586 26.17700195 C95.18725586 23.53700195 95.18725586 20.89700195 95.18725586 18.17700195 C94.52725586 18.17700195 93.86725586 18.17700195 93.18725586 18.17700195 C92.19725586 14.21700195 92.19725586 14.21700195 91.18725586 10.17700195 C89.86725586 10.50700195 88.54725586 10.83700195 87.18725586 11.17700195 C83.93725586 9.73950195 83.93725586 9.73950195 81.18725586 8.17700195 C81.18725586 7.18700195 81.18725586 6.19700195 81.18725586 5.17700195 C80.63038086 5.05325195 80.07350586 4.92950195 79.49975586 4.80200195 C77.18725586 4.17700195 77.18725586 4.17700195 74.94496155 3.15312195 C71.72101087 2.01196945 69.16922603 1.92975352 65.75146484 1.93408203 C63.82807533 1.92946709 63.82807533 1.92946709 61.86582947 1.92475891 C60.47166772 1.9316627 59.07750772 1.93893012 57.68334961 1.9465332 C56.23950746 1.94772725 54.79566452 1.94817769 53.3518219 1.94792175 C50.32483046 1.94948422 47.29795766 1.9577491 44.27099609 1.97119141 C40.42388644 1.98807401 36.57690825 1.99200846 32.72976589 1.99124622 C29.74486576 1.99152073 26.7599934 1.99704813 23.77510262 2.00424767 C22.35877759 2.00739394 20.94244946 2.0093921 19.52612114 2.01014137 C3.55665394 1.61207436 3.55665394 1.61207436 -11.81274414 5.17700195 C-12.80274414 5.50700195 -13.79274414 5.83700195 -14.81274414 6.17700195 C-16.51156862 8.67460177 -16.51156862 8.67460177 -17.81274414 11.17700195 C-18.80274414 10.84700195 -19.79274414 10.51700195 -20.81274414 10.17700195 C-23.46520016 10.83796981 -23.46520016 10.83796981 -25.81274414 12.17700195 C-26.14274414 13.16700195 -26.47274414 14.15700195 -26.81274414 15.17700195 C-27.47274414 15.17700195 -28.13274414 15.17700195 -28.81274414 15.17700195 C-29.08086914 16.31137695 -29.34899414 17.44575195 -29.62524414 18.61450195 C-30.01711914 19.79012695 -30.40899414 20.96575195 -30.81274414 22.17700195 C-31.80274414 22.50700195 -32.79274414 22.83700195 -33.81274414 23.17700195 C-33.83588213 33.05162497 -33.85366669 42.92624158 -33.86455631 52.80088615 C-33.86978194 57.38574046 -33.87687381 61.97057627 -33.88818359 66.55541992 C-33.89902381 70.97742012 -33.9050234 75.39940249 -33.90762138 79.82141495 C-33.90947358 81.51116339 -33.91309028 83.20091082 -33.9184742 84.8906517 C-33.92569965 87.25158573 -33.92673444 89.61244542 -33.92626953 91.97338867 C-33.92986481 92.67685425 -33.93346008 93.38031982 -33.93716431 94.10510254 C-33.97610437 97.7641926 -33.97610437 97.7641926 -32.81274414 101.17700195 C-32.74079545 104.06070528 -32.71982706 106.91939859 -32.75024414 109.80200195 C-32.75475586 110.60379883 -32.75926758 111.4055957 -32.76391602 112.23168945 C-32.77571246 114.21349201 -32.79364809 116.19525629 -32.81274414 118.17700195 C-37.42170053 113.56804556 -36.16388968 104.40002027 -36.38305664 98.2121582 C-36.42520294 97.0292067 -36.46734924 95.84625519 -36.51077271 94.62745667 C-36.91759177 81.90960194 -36.91364991 69.20390669 -36.7355957 56.48193359 C-36.70331948 53.8733235 -36.68241594 51.26455116 -36.67211914 48.65576172 C-36.65687636 44.80672268 -36.60960557 40.95925317 -36.55493164 37.1105957 C-36.55572723 35.95635605 -36.55652283 34.80211639 -36.55734253 33.61289978 C-36.36467496 24.4025672 -33.86208315 16.45520562 -27.12524414 9.86450195 C-19.159498 2.41170158 -10.67019746 0.03981667 0 0 Z " fill="#5163D3" transform="translate(73.812744140625,91.822998046875)"/>
<path d="M0 0 C0.33 1.32 0.66 2.64 1 4 C1.66 4 2.32 4 3 4 C3.4125 4.94875 3.825 5.8975 4.25 6.875 C6.0040131 10.00716624 6.70851757 10.86500606 10 12 C10 12.99 10 13.98 10 15 C11.17369141 15.07347656 11.17369141 15.07347656 12.37109375 15.1484375 C13.38300781 15.22320312 14.39492188 15.29796875 15.4375 15.375 C16.44683594 15.44460937 17.45617187 15.51421875 18.49609375 15.5859375 C19.32238281 15.72257813 20.14867188 15.85921875 21 16 C21.33 16.66 21.66 17.32 22 18 C32.36160258 18.04632562 42.72318055 18.08187038 53.08486557 18.10362434 C57.89613247 18.11406476 62.70732855 18.12822872 67.51855469 18.15087891 C72.16102037 18.17259801 76.80341791 18.18456668 81.44593048 18.18975449 C83.21776655 18.19345191 84.98959886 18.20067198 86.76140594 18.21146011 C89.24173566 18.22596264 91.72178319 18.22797846 94.20214844 18.22705078 C94.93582642 18.23424133 95.66950439 18.24143188 96.42541504 18.24884033 C100.1889695 18.23359309 102.75390829 17.90129203 106 16 C108.33006911 15.64456573 110.66327016 15.3086247 113 15 C113.33 14.67 113.66 14.34 114 14 C115.99958364 13.95919217 118.00045254 13.95745644 120 14 C118.13332368 17.73335264 113.78316867 18.52930395 110.04443359 19.91278076 C102.53462756 22.1819068 94.5786804 21.71502184 86.8125 21.6640625 C84.97891927 21.66744034 83.14534074 21.67230096 81.31176758 21.67855835 C77.48920139 21.68588415 73.66722372 21.67536414 69.84472656 21.65185547 C64.97963089 21.62337011 60.11591498 21.63979736 55.25086975 21.66971779 C51.47064076 21.68790783 47.6907313 21.68197955 43.91049194 21.66907883 C42.11819286 21.66577703 40.3258634 21.6697163 38.53359985 21.68147659 C27.10104636 21.74005675 15.54691612 21.69940459 6.42260742 13.7562561 C2.73936644 9.92700443 0.0885021 6.30644776 -1 1 C-0.67 0.67 -0.34 0.34 0 0 Z " fill="#2F44D0" transform="translate(42,209)"/>
<path d="M0 0 C2.7824349 1.39121745 3.55210065 3.30164212 5 6 C5 6.66 5 7.32 5 8 C5.78375 8.309375 6.5675 8.61875 7.375 8.9375 C10 10 10 10 12 11 C11 14 11 14 8.1875 15.75 C4.28877459 18.50204146 3.10763299 20.78473403 1 25 C-1.67643442 22.39504306 -4.0323491 19.60066349 -6.40234375 16.71875 C-8.11848594 14.87253347 -9.94675059 13.45456978 -12 12 C-11.46890625 11.63648438 -10.9378125 11.27296875 -10.390625 10.8984375 C-5.84855246 7.66594062 -2.76940714 4.8464625 0 0 Z " fill="#808080" transform="translate(807,259)"/>
<path d="M0 0 C0.33 0 0.66 0 1 0 C1 20.79 1 41.58 1 63 C6.94 63 12.88 63 19 63 C19.66 65.97 20.32 68.94 21 72 C14.94563254 72.6727075 9.08907636 73.11276067 3 73 C-0.98846153 64.31731507 -1.48143363 56.82355279 -1.171875 47.36328125 C-1.14189671 45.98898648 -1.11379348 44.61464966 -1.08746338 43.24028015 C-1.01394481 39.66082927 -0.91533905 36.08251544 -0.81109619 32.50384521 C-0.70885922 28.83689802 -0.63091034 25.16943821 -0.55078125 21.50195312 C-0.3906571 14.3339266 -0.20396757 7.16692742 0 0 Z " fill="#3B4DD9" transform="translate(69,135)"/>
<path d="M0 0 C16 0 16 0 19 2 C19.28660203 4.54352483 19.37857678 6.84286964 19.34057617 9.38720703 C19.34123329 10.52881287 19.34123329 10.52881287 19.34190369 11.69348145 C19.33980959 14.21518393 19.31645001 16.73622583 19.29296875 19.2578125 C19.28737499 21.00372962 19.28310385 22.74965144 19.28010559 24.49557495 C19.26863948 29.0955704 19.23915727 33.69528263 19.20599365 38.29516602 C19.17533071 42.98710295 19.16160835 47.67908555 19.14648438 52.37109375 C19.11428913 61.58085375 19.06307159 70.79040334 19 80 C18.67 80 18.34 80 18 80 C18 54.59 18 29.18 18 3 C12.39 3 6.78 3 1 3 C1 28.41 1 53.82 1 80 C0.67 80 0.34 80 0 80 C0 53.6 0 27.2 0 0 Z " fill="#5D72DA" transform="translate(125,117)"/>
<path d="M0 0 C0.66 0 1.32 0 2 0 C5.90281671 7.80563342 5.27891493 15.48792953 5 24 C5.66 24.33 6.32 24.66 7 25 C7.04663606 32.87652391 7.08202633 40.7530146 7.10362434 48.62964249 C7.11399781 52.28830136 7.12803707 55.94686478 7.15087891 59.60546875 C7.17283987 63.14571807 7.18461682 66.68587641 7.18975449 70.22618866 C7.19517002 72.21334335 7.21074434 74.20046217 7.22659302 76.18756104 C7.22754377 83.99428694 6.56385369 91.34841 5 99 C4.67 99 4.34 99 4 99 C3.875 93.25 3.875 93.25 5 91 C4.34 91 3.68 91 3 91 C3.16455185 90.00338852 3.3291037 89.00677704 3.49864197 87.97996521 C4.05352529 84.07319968 4.0816596 80.26934934 4.02172852 76.32055664 C4.01212097 75.58801666 4.00251343 74.85547668 3.99261475 74.10073853 C3.95989963 71.70377132 3.91946481 69.30700245 3.87890625 66.91015625 C3.85457818 65.23864927 3.83073601 63.56713516 3.80735779 61.89561462 C3.74478403 57.51439227 3.67564297 53.13329763 3.60510254 48.75219727 C3.53417658 44.27431004 3.46950523 39.79633287 3.40429688 35.31835938 C3.27562924 26.54547326 3.14001882 17.77271225 3 9 C2.01 8.67 1.02 8.34 0 8 C0 5.36 0 2.72 0 0 Z " fill="#4D64E0" transform="translate(169,110)"/>
<path d="M0 0 C0.33 0 0.66 0 1 0 C1.33 14.19 1.66 28.38 2 43 C7.28 43.33 12.56 43.66 18 44 C18 29.48 18 14.96 18 0 C18.33 0 18.66 0 19 0 C19 14.85 19 29.7 19 45 C17.02 45.495 17.02 45.495 15 46 C15.33 47.65 15.66 49.3 16 51 C13.2761601 52.36191995 11.01903173 52.06161289 8 52 C7.01 52 6.02 52 5 52 C4.505 50.515 4.505 50.515 4 49 C3.01 48.67 2.02 48.34 1 48 C-0.07321465 45.18972807 -0.12209961 42.49066348 -0.11352539 39.50683594 C-0.11341209 38.18591949 -0.11341209 38.18591949 -0.11329651 36.83831787 C-0.10813522 35.89651672 -0.10297394 34.95471558 -0.09765625 33.984375 C-0.0962413 33.01340881 -0.09482635 32.04244263 -0.09336853 31.04205322 C-0.08777663 27.94467065 -0.07522559 24.84736068 -0.0625 21.75 C-0.05748395 19.64843854 -0.05292123 17.54687596 -0.04882812 15.4453125 C-0.03780985 10.29684708 -0.02055074 5.14843584 0 0 Z " fill="#3D4EBC" transform="translate(97,154)"/>
<path d="M0 0 C0.33 0.66 0.66 1.32 1 2 C0.53239258 3.184729 0.06478516 4.36945801 -0.41699219 5.59008789 C-2.90166634 12.69944887 -2.39061702 20.12832828 -2.328125 27.55859375 C-2.32506245 29.15519533 -2.3231901 30.75179959 -2.32244873 32.34840393 C-2.31786997 35.67597862 -2.30353058 39.00330801 -2.28125 42.33081055 C-2.25280795 46.60029014 -2.24201964 50.86957857 -2.2375679 55.13914394 C-2.23341946 58.42731133 -2.22360941 61.71544003 -2.21169281 65.00358772 C-2.2059919 66.57889561 -2.2012326 68.15420719 -2.19742584 69.7295208 C-2.19057423 71.92187993 -2.17695134 74.11408603 -2.16113281 76.30639648 C-2.15430481 77.55388168 -2.14747681 78.80136688 -2.14044189 80.08665466 C-2.19945548 82.93744552 -2.19945548 82.93744552 -1 85 C-0.92805131 87.88370333 -0.90708292 90.74239664 -0.9375 93.625 C-0.94201172 94.42679687 -0.94652344 95.22859375 -0.95117188 96.0546875 C-0.96296832 98.03649006 -0.98090395 100.01825433 -1 102 C-5.60650475 97.39349525 -4.35367908 88.2283509 -4.57421875 82.04296875 C-4.6165715 80.86043015 -4.65892426 79.67789154 -4.70256042 78.45951843 C-5.11016968 65.70134365 -5.06619618 52.95677593 -4.86791992 40.19506836 C-4.81159596 36.24916516 -4.78376397 32.30361666 -4.75585938 28.35742188 C-4.7204838 25.81768359 -4.68343884 23.27796788 -4.64453125 20.73828125 C-4.64016556 19.57371902 -4.63579987 18.4091568 -4.63130188 17.20930481 C-4.4877472 10.36842199 -3.58572052 5.86214157 0 0 Z " fill="#4450BF" transform="translate(42,108)"/>
<path d="M0 0 C5.61 0 11.22 0 17 0 C18 5 18 5 16.87109375 6.79296875 C14.45758011 8.34991179 12.9197038 8.36835511 10.0625 8.3125 C9.20785156 8.30863281 8.35320312 8.30476562 7.47265625 8.30078125 C4.89971808 7.98780141 3.22494525 7.29573378 1 6 C1.33 4.68 1.66 3.36 2 2 C1.34 2 0.68 2 0 2 C0 1.34 0 0.68 0 0 Z " fill="#3344CD" transform="translate(125,198)"/>
<path d="M0 0 C1.58206057 0.00667536 3.16410534 0.0186375 4.74609375 0.03515625 C5.55240234 0.03966797 6.35871094 0.04417969 7.18945312 0.04882812 C9.18753131 0.06065107 11.18557158 0.07858711 13.18359375 0.09765625 C13.18359375 1.08765625 13.18359375 2.07765625 13.18359375 3.09765625 C7.90359375 3.09765625 2.62359375 3.09765625 -2.81640625 3.09765625 C-2.81640625 23.55765625 -2.81640625 44.01765625 -2.81640625 65.09765625 C-3.47640625 65.09765625 -4.13640625 65.09765625 -4.81640625 65.09765625 C-4.83953309 56.77036678 -4.85732308 48.44309062 -4.86821842 40.11577702 C-4.87344651 36.24945507 -4.88054279 32.38315504 -4.8918457 28.5168457 C-4.90267725 24.78862224 -4.90868365 21.06041991 -4.91128349 17.33218193 C-4.91313726 15.90675969 -4.91675696 14.48133866 -4.92213631 13.05592537 C-4.92935018 11.06602217 -4.92981433 9.07609791 -4.92993164 7.08618164 C-4.93215225 5.95144913 -4.93437286 4.81671661 -4.93666077 3.64759827 C-4.74344518 -0.44944989 -4.30389276 0.11013032 0 0 Z " fill="#5767CF" transform="translate(74.81640625,132.90234375)"/>
<path d="M0 0 C8.21760135 0.29348576 12.54410928 3.54410928 18.25 9.25 C24.46662428 19.01898101 24.46907814 27.76818453 24 39 C23.67 39 23.34 39 23 39 C22.95101562 37.9378125 22.90203125 36.875625 22.8515625 35.78125 C22.31639785 25.25498713 22.31639785 25.25498713 20 15 C18.68 15 17.36 15 16 15 C15.34 12.36 14.68 9.72 14 7 C12.68 7.33 11.36 7.66 10 8 C6.75 6.5625 6.75 6.5625 4 5 C4 4.01 4 3.02 4 2 C2.68 1.67 1.36 1.34 0 1 C0 0.67 0 0.34 0 0 Z " fill="#5468D8" transform="translate(151,95)"/>
<path d="M0 0 C4.95 0 9.9 0 15 0 C15 3.20395416 14.25664978 5.09399739 13 8 C11.56138706 7.91253716 10.12402492 7.80434652 8.6875 7.6875 C7.88699219 7.62949219 7.08648437 7.57148438 6.26171875 7.51171875 C3.55675136 6.89971404 2.64431021 6.2109648 1 4 C0.67 2.68 0.34 1.36 0 0 Z " fill="#2D41C2" transform="translate(71,198)"/>
<path d="M0 0 C0.33 0 0.66 0 1 0 C3.42291291 13.30438788 3.20801332 26.51913648 3 40 C2.01 40.495 2.01 40.495 1 41 C0.38508665 27.32799033 -0.18359241 13.6878342 0 0 Z " fill="#3D56E9" transform="translate(89,136)"/>
<path d="M0 0 C21.78 0 43.56 0 66 0 C66 0.99 66 1.98 66 3 C65.01 2.67 64.02 2.34 63 2 C60.96095909 1.88279191 58.91842818 1.82321157 56.8762207 1.79467773 C55.61513992 1.77473251 54.35405914 1.75478729 53.05476379 1.73423767 C51.67843753 1.71725467 50.30210998 1.70037581 48.92578125 1.68359375 C47.51758725 1.66301803 46.10939935 1.6420214 44.70121765 1.62062073 C40.99739519 1.56546378 37.29351759 1.51602646 33.58959961 1.46777344 C29.80903218 1.41751179 26.02854471 1.36185008 22.24804688 1.30664062 C14.83209898 1.19913708 7.41608455 1.09767486 0 1 C0 0.67 0 0.34 0 0 Z " fill="#465FE5" transform="translate(80,93)"/>
<path d="M0 0 C0.33 1.32 0.66 2.64 1 4 C1.66 4 2.32 4 3 4 C3.4125 4.94875 3.825 5.8975 4.25 6.875 C6.0040131 10.00716624 6.70851757 10.86500606 10 12 C10 12.99 10 13.98 10 15 C13.63 15.33 17.26 15.66 21 16 C21.33 17.32 21.66 18.64 22 20 C13.45833175 19.14583317 7.79533565 15.58959963 2.41015625 9.0390625 C0.64648908 6.48882908 -0.32076072 4.01884123 -1 1 C-0.67 0.67 -0.34 0.34 0 0 Z " fill="#3746C0" transform="translate(42,209)"/>
<path d="M0 0 C1.4540625 0.0309375 1.4540625 0.0309375 2.9375 0.0625 C1.30867708 3.32014584 -1.58866275 3.9524912 -4.875 5.2421875 C-10.8655808 6.78388109 -16.91767578 6.35745156 -23.0625 6.0625 C-23.0625 5.7325 -23.0625 5.4025 -23.0625 5.0625 C-21.825 4.93875 -20.5875 4.815 -19.3125 4.6875 C-16.10657205 4.29447906 -13.9315013 3.54327486 -11.0625 2.0625 C-8.73243089 1.70706573 -6.39922984 1.3711247 -4.0625 1.0625 C-3.0625 0.0625 -3.0625 0.0625 0 0 Z " fill="#3E4FDA" transform="translate(159.0625,222.9375)"/>
<path d="M0 0 C0.66 0 1.32 0 2 0 C2.22823248 9.28145408 1.90427108 17.86970027 0 27 C-0.33 27 -0.66 27 -1 27 C-1.125 21.25 -1.125 21.25 0 19 C-0.66 19 -1.32 19 -2 19 C-1.34 12.73 -0.68 6.46 0 0 Z " fill="#4E5ED3" transform="translate(174,182)"/>
<path d="M0 0 C4.62 0 9.24 0 14 0 C12.515 2.475 12.515 2.475 11 5 C7.7 4.67 4.4 4.34 1 4 C0.67 2.68 0.34 1.36 0 0 Z " fill="#2B3DB0" transform="translate(127,198)"/>
<path d="M0 0 C5.28 0 10.56 0 16 0 C16.33 0.99 16.66 1.98 17 3 C11.39 3 5.78 3 0 3 C0 2.01 0 1.02 0 0 Z " fill="#5569EB" transform="translate(125,117)"/>
<path d="M0 0 C4.41463745 4.02250633 6.68204925 9.15993005 7.17626953 15.12890625 C7.34318371 20.09224119 7.20715468 25.03979625 7 30 C6.67 30 6.34 30 6 30 C5.95101562 28.9378125 5.90203125 27.875625 5.8515625 26.78125 C5.31639785 16.25498713 5.31639785 16.25498713 3 6 C2.34 6 1.68 6 1 6 C0.67 4.02 0.34 2.04 0 0 Z " fill="#6076D1" transform="translate(168,104)"/>
<path d="M0 0 C0.99 0.33 1.98 0.66 3 1 C2.43410156 1.30292969 1.86820312 1.60585937 1.28515625 1.91796875 C-3.41581954 4.40988637 -3.41581954 4.40988637 -6 8.8125 C-6 9.534375 -6 10.25625 -6 11 C-7.98 11.33 -9.96 11.66 -12 12 C-10.56394807 8.61181498 -8.79533421 6.6813402 -6 4.3125 C-5.29875 3.71050781 -4.5975 3.10851562 -3.875 2.48828125 C-2 1 -2 1 0 0 Z " fill="#403E3F" transform="translate(429,145)"/>
<path d="M0 0 C0.33 0.66 0.66 1.32 1 2 C0.505 2.350625 0.01 2.70125 -0.5 3.0625 C-2.73063966 5.94374289 -2.19980621 8.47009026 -2 12 C-5.465 10.02 -5.465 10.02 -9 8 C-6.21751321 5.06293061 -3.12061789 2.56584137 0 0 Z " fill="#787878" transform="translate(804,264)"/>
<path d="M0 0 C4.62 0 9.24 0 14 0 C14 0.66 14 1.32 14 2 C12.58366664 2.16947579 11.16691467 2.33545507 9.75 2.5 C8.56664063 2.63921875 8.56664063 2.63921875 7.359375 2.78125 C5 3 5 3 1 3 C0.67 2.01 0.34 1.02 0 0 Z " fill="#2C3AA4" transform="translate(72,198)"/>
<path d="M0 0 C0.6875 1.8125 0.6875 1.8125 1 4 C-0.1875 5.75 -0.1875 5.75 -2 7 C-3.32 7 -4.64 7 -6 7 C-6 6.34 -6 5.68 -6 5 C-7.98 5.99 -7.98 5.99 -10 7 C-10.33 6.01 -10.66 5.02 -11 4 C-9.741875 4.0825 -8.48375 4.165 -7.1875 4.25 C-5.01202652 4.31688143 -5.01202652 4.31688143 -3 4 C-0.94729537 2.15811388 -0.94729537 2.15811388 0 0 Z " fill="#2F41C3" transform="translate(141,198)"/>
<path d="M0 0 C2.58926331 2.58926331 2.37398043 4.02705279 2.625 7.625 C2.69976562 8.62789062 2.77453125 9.63078125 2.8515625 10.6640625 C2.92503906 11.82035156 2.92503906 11.82035156 3 13 C1.68 13.33 0.36 13.66 -1 14 C-1.33 12.35 -1.66 10.7 -2 9 C-1.01 9 -0.02 9 1 9 C0.67 6.03 0.34 3.06 0 0 Z " fill="#474445" transform="translate(465,161)"/>
<path d="M0 0 C0.33 0.66 0.66 1.32 1 2 C2.98 1.67 4.96 1.34 7 1 C7 1.99 7 2.98 7 4 C6.21625 4.103125 5.4325 4.20625 4.625 4.3125 C1.66954819 4.77595022 1.66954819 4.77595022 0 8 C-0.66 6.35 -1.32 4.7 -2 3 C-1.34 3 -0.68 3 0 3 C0 2.01 0 1.02 0 0 Z " fill="#4256E2" transform="translate(89,194)"/>
<path d="M0 0 C0.515625 0.2475 1.03125 0.495 1.5625 0.75 C0.5725 1.08 -0.4175 1.41 -1.4375 1.75 C-2.9225 3.0184375 -2.9225 3.0184375 -4.4375 4.3125 C-7.4375 6.75 -7.4375 6.75 -10.4375 6.75 C-9.15564628 2.90443885 -7.65170223 2.32931973 -4.2265625 0.46875 C-2.4375 -0.25 -2.4375 -0.25 0 0 Z " fill="#413E3F" transform="translate(581.4375,145.25)"/>
<path d="M0 0 C0.66 0.66 1.32 1.32 2 2 C4.66949409 2.24315656 4.66949409 2.24315656 7.625 2.125 C8.62789063 2.10695312 9.63078125 2.08890625 10.6640625 2.0703125 C11.82035156 2.03550781 11.82035156 2.03550781 13 2 C13 1.34 13 0.68 13 0 C13.66 0 14.32 0 15 0 C14.67 1.32 14.34 2.64 14 4 C9.71 4 5.42 4 1 4 C0.67 2.68 0.34 1.36 0 0 Z " fill="#464544" transform="translate(478,193)"/>
<path d="M0 0 C0.99 0.33 1.98 0.66 3 1 C3 1.99 3 2.98 3 4 C2.34 4 1.68 4 1 4 C1 4.66 1 5.32 1 6 C0.34 6 -0.32 6 -1 6 C-0.67 4.02 -0.34 2.04 0 0 Z M-5 8 C-4.01 8.495 -4.01 8.495 -3 9 C-3.99 10.485 -3.99 10.485 -5 12 C-5 10.68 -5 9.36 -5 8 Z " fill="#4C64F4" transform="translate(45,107)"/>
<path d="M0 0 C0.66 0 1.32 0 2 0 C2.625 2.3125 2.625 2.3125 3 5 C2.01 6.485 2.01 6.485 1 8 C0.01 7.67 -0.98 7.34 -2 7 C-1.34 4.69 -0.68 2.38 0 0 Z " fill="#3247CF" transform="translate(86,198)"/>
<path d="M0 0 C0.33 0 0.66 0 1 0 C1.06058594 0.59167969 1.12117187 1.18335938 1.18359375 1.79296875 C1.62012371 5.90978208 2.08671346 9.95544533 3 14 C2.01 14 1.02 14 0 14 C0 9.38 0 4.76 0 0 Z " fill="#3D53EA" transform="translate(173,168)"/>
<path d="M0 0 C4.83256305 0.41421969 6.82679218 2.46413986 10 6 C9.401875 5.835 8.80375 5.67 8.1875 5.5 C5.88655664 4.8885876 5.88655664 4.8885876 3 5 C2.67 4.01 2.34 3.02 2 2 C1.34 1.34 0.68 0.68 0 0 Z " fill="#40403E" transform="translate(350,146)"/>
<path d="M0 0 C0 2.8869287 -0.3851052 4.46894565 -1.375 7.125 C-1.63023438 7.82882813 -1.88546875 8.53265625 -2.1484375 9.2578125 C-3 11 -3 11 -5 12 C-4.74337755 10.55989519 -4.46909179 9.1229313 -4.1875 7.6875 C-4.03667969 6.88699219 -3.88585938 6.08648437 -3.73046875 5.26171875 C-2.92427764 2.76554413 -1.97947998 1.67577894 0 0 Z " fill="#5663D8" transform="translate(46,103)"/>
<path d="M0 0 C0.66 0.33 1.32 0.66 2 1 C1.45276317 4.37462715 0.9451 6.08235 -1 9 C-1.66 9 -2.32 9 -3 9 C-2.44271087 5.65626525 -1.64826111 2.96687001 0 0 Z " fill="#424041" transform="translate(567,155)"/>
<path d="M0 0 C0.33 0 0.66 0 1 0 C1 2.64 1 5.28 1 8 C-0.32 8 -1.64 8 -3 8 C-3.33 7.01 -3.66 6.02 -4 5 C-2.68 5 -1.36 5 0 5 C0 3.35 0 1.7 0 0 Z " fill="#485EE9" transform="translate(124,120)"/>
<path d="M0 0 C0.66 0 1.32 0 2 0 C3 5.75 3 5.75 3 8 C2.01 8 1.02 8 0 8 C0 5.36 0 2.72 0 0 Z " fill="#4B68F3" transform="translate(169,110)"/>
<path d="M0 0 C1.82421875 1.21484375 1.82421875 1.21484375 3.6875 2.9375 C4.31011719 3.50339844 4.93273437 4.06929687 5.57421875 4.65234375 C6.04472656 5.09707031 6.51523437 5.54179687 7 6 C6.34 6.66 5.68 7.32 5 8 C-0.75 3.25 -0.75 3.25 -3 1 C-2.01 0.67 -1.02 0.34 0 0 Z " fill="#414040" transform="translate(598,155)"/>
<path d="M0 0 C0 3 0 6 0 9 C-1.32 9.33 -2.64 9.66 -4 10 C-3.690625 9.443125 -3.38125 8.88625 -3.0625 8.3125 C-1.94305378 5.87605823 -1.49638001 3.62372289 -1 1 C-0.67 0.67 -0.34 0.34 0 0 Z " fill="#364AD8" transform="translate(144,196)"/>
<path d="M0 0 C0 3.51716303 -0.82445585 4.37121748 -3 7 C-3 6.34 -3 5.68 -3 5 C-3.66 5 -4.32 5 -5 5 C-4 2 -4 2 -1.9375 0.8125 C-1.298125 0.544375 -0.65875 0.27625 0 0 Z " fill="#3F3E3E" transform="translate(328,159)"/>
<path d="M0 0 C-1.25 1.5625 -1.25 1.5625 -3 3 C-5.125 2.8125 -5.125 2.8125 -7 2 C-7.33 1.34 -7.66 0.68 -8 0 C-4.71303767 -0.79953138 -3.28976808 -1.09658936 0 0 Z " fill="#3F3D3E" transform="translate(699,145)"/>
<path d="M0 0 C3.4375 0.8125 3.4375 0.8125 7 2 C7.33 2.99 7.66 3.98 8 5 C6.68 5 5.36 5 4 5 C4 4.01 4 3.02 4 2 C2.68 1.67 1.36 1.34 0 1 C0 0.67 0 0.34 0 0 Z " fill="#5065EA" transform="translate(151,95)"/>
<path d="M0 0 C1.32 0 2.64 0 4 0 C4.33 1.32 4.66 2.64 5 4 C2.03 3.505 2.03 3.505 -1 3 C-0.67 2.01 -0.34 1.02 0 0 Z " fill="#3749D0" transform="translate(59,225)"/>
<path d="M0 0 C2.475 0.495 2.475 0.495 5 1 C4.67 2.32 4.34 3.64 4 5 C2.68 4.67 1.36 4.34 0 4 C0 2.68 0 1.36 0 0 Z " fill="#3E53EE" transform="translate(118,193)"/>
<path d="M0 0 C0.99 0.495 0.99 0.495 2 1 C2.625 4.0625 2.625 4.0625 3 7 C2.01 7 1.02 7 0 7 C0 4.69 0 2.38 0 0 Z " fill="#4558EC" transform="translate(39,184)"/>
<path d="M0 0 C0 0.99 0 1.98 0 3 C-2.31 3.66 -4.62 4.32 -7 5 C-7.66 4.34 -8.32 3.68 -9 3 C-6.03 2.01 -3.06 1.02 0 0 Z " fill="#413E3E" transform="translate(334,143)"/>
</svg>
